<svg width="55" height="55" viewBox="0 0 55 55" fill="none" xmlns="http://www.w3.org/2000/svg">
<path d="M31.9917 16.2136C32.169 14.9688 32.0884 13.7009 31.7548 12.4886C31.4212 11.2763 30.8417 10.1456 30.0525 9.16684C29.2633 8.18806 28.2812 7.38209 27.1672 6.79907C26.0532 6.21605 24.8311 5.86844 23.5771 5.77785C22.323 5.68726 21.0637 5.85563 19.8775 6.2725C18.6913 6.68936 17.6035 7.3458 16.6818 8.20099C15.7601 9.05619 15.0242 10.0919 14.5198 11.2436C14.0154 12.3953 13.7534 13.6385 13.75 14.8959C13.75 15.9844 13.8073 17.1875 14.976 17.1875C15.1421 17.1894 15.3067 17.1552 15.4582 17.0872C15.6097 17.0191 15.7447 16.919 15.8537 16.7936C15.9627 16.6683 16.0431 16.5208 16.0894 16.3612C16.1357 16.2017 16.1468 16.0341 16.1219 15.8698C15.983 14.8949 16.0551 13.9015 16.3334 12.9568C16.6118 12.0122 17.0898 11.1384 17.7352 10.3945C18.3806 9.6507 19.1782 9.05418 20.0741 8.64537C20.97 8.23656 21.9433 8.02499 22.9281 8.02499C23.9129 8.02499 24.8862 8.23656 25.7821 8.64537C26.6781 9.05418 27.4757 9.6507 28.1211 10.3945C28.7664 11.1384 29.2445 12.0122 29.5228 12.9568C29.8011 13.9015 29.8733 14.8949 29.7344 15.8698C29.7155 16.1562 29.8048 16.4392 29.9846 16.6629C30.1644 16.8866 30.4215 17.0347 30.7052 17.0779C30.9889 17.1211 31.2785 17.0562 31.5167 16.8962C31.7549 16.7362 31.9244 16.4926 31.9917 16.2136Z" fill="#F2F2F2"/>
<path d="M22.9163 2.29165C24.8399 2.29177 26.7379 2.73216 28.465 3.57907C30.192 4.42598 31.7024 5.65696 32.8802 7.17769C34.0581 8.69843 34.8723 10.4686 35.2605 12.3526C35.6486 14.2366 35.6004 16.1844 35.1195 18.0469C35.0435 18.3416 35.0877 18.6545 35.2424 18.9167C35.3972 19.1788 35.6497 19.3688 35.9445 19.4448C36.2392 19.5208 36.5521 19.4765 36.8143 19.3218C37.0764 19.1671 37.2664 18.9146 37.3424 18.6198C37.9086 16.4192 37.9638 14.1182 37.5038 11.8929C37.0438 9.66771 36.0808 7.57719 34.6886 5.7814C33.2963 3.9856 31.5117 2.53213 29.4712 1.53222C27.4308 0.532301 25.1886 0.0124512 22.9163 0.0124512C20.6441 0.0124512 18.4019 0.532301 16.3614 1.53222C14.321 2.53213 12.5364 3.9856 11.1441 5.7814C9.75184 7.57719 8.78887 9.66771 8.3289 11.8929C7.86892 14.1182 7.92413 16.4192 8.4903 18.6198C8.56627 18.9146 8.75623 19.1671 9.01839 19.3218C9.1482 19.3984 9.29183 19.4487 9.44107 19.4698C9.59032 19.4909 9.74226 19.4824 9.88822 19.4448C10.0342 19.4072 10.1713 19.3412 10.2917 19.2506C10.4122 19.1599 10.5136 19.0465 10.5902 18.9167C10.6668 18.7869 10.7171 18.6432 10.7382 18.494C10.7593 18.3448 10.7508 18.1928 10.7132 18.0469C10.2323 16.1844 10.1841 14.2366 10.5722 12.3526C10.9604 10.4686 11.7746 8.69843 12.9524 7.17769C14.1303 5.65696 15.6406 4.42598 17.3677 3.57907C19.0948 2.73216 20.9928 2.29177 22.9163 2.29165Z" fill="#F2F2F2"/>
<path d="M43.7243 27.5C43.2577 27.475 42.791 27.5455 42.3525 27.7071C41.9141 27.8686 41.5131 28.1179 41.1743 28.4396C40.8354 28.7613 40.5657 29.1488 40.3816 29.5782C40.1975 30.0077 40.1029 30.4702 40.1035 30.9375V27.5C40.1035 26.5883 39.7414 25.7139 39.0967 25.0693C38.452 24.4246 37.5777 24.0625 36.666 24.0625C35.7543 24.0625 34.88 24.4246 34.2353 25.0693C33.5907 25.7139 33.2285 26.5883 33.2285 27.5V25.2083C33.2285 24.2966 32.8664 23.4223 32.2217 22.7776C31.577 22.133 30.7027 21.7708 29.791 21.7708C28.8793 21.7708 28.005 22.133 27.3603 22.7776C26.7157 23.4223 26.3535 24.2966 26.3535 25.2083V16.2364C26.3717 15.3315 26.0459 14.4534 25.4419 13.7793C24.838 13.1051 24.0008 12.6852 23.0993 12.6041C22.6327 12.5792 22.166 12.6497 21.7275 12.8112C21.2891 12.9728 20.8881 13.2221 20.5493 13.5438C20.2104 13.8655 19.9407 14.2529 19.7566 14.6824C19.5725 15.1119 19.4779 15.5744 19.4785 16.0416V33.2291C19.4785 28.3708 12.6035 26.9958 12.6035 30.9375V40.1041C12.6035 43.7509 14.0522 47.2482 16.6308 49.8269C19.2094 52.4055 22.7068 53.8541 26.3535 53.8541H33.2285C36.8752 53.8541 40.3726 52.4055 42.9512 49.8269C45.5299 47.2482 46.9785 43.7509 46.9785 40.1041V31.1323C46.9967 30.2273 46.6709 29.3492 46.0669 28.6751C45.463 28.001 44.6258 27.581 43.7243 27.5Z" fill="#F2F2F2"/>
</svg>
