<svg width="91" height="96" viewBox="0 0 91 96" fill="none" xmlns="http://www.w3.org/2000/svg">
<g clip-path="url(#clip0_143_610)">
<path d="M72.0413 66V10C72.0413 7.34784 71.0427 4.8043 69.265 2.92893C67.4873 1.05357 65.0762 0 62.5622 0L28.4372 0C25.9231 0 23.5121 1.05357 21.7344 2.92893C19.9567 4.8043 18.958 7.34784 18.958 10V82C18.958 84.6522 19.9567 87.1957 21.7344 89.0711C23.5121 90.9464 25.9231 92 28.4372 92H40.362L44.2674 95.52C44.6495 95.8648 45.1458 96.0353 45.6471 95.994C46.1484 95.9528 46.6137 95.7031 46.9405 95.3C47.2673 94.8969 47.429 94.3733 47.3899 93.8444C47.3508 93.3156 47.1141 92.8248 46.732 92.48L35.357 82.16C35.0603 81.8858 34.8628 81.5117 34.7981 81.1012C34.7335 80.6908 34.8056 80.2693 35.0022 79.9086C35.1989 79.5479 35.5079 79.2703 35.8768 79.1228C36.2456 78.9754 36.6515 78.9673 37.0253 79.1L44.893 82C45.1781 82.0992 45.4815 82.1255 45.7781 82.0768C46.0747 82.0282 46.3562 81.9059 46.5993 81.72C46.8577 81.5264 47.066 81.2675 47.2051 80.967C47.3442 80.6665 47.4097 80.3341 47.3955 80V54C47.3955 53.4696 47.5952 52.9609 47.9508 52.5858C48.3063 52.2107 48.7885 52 49.2913 52C49.7941 52 50.2764 52.2107 50.6319 52.5858C50.9874 52.9609 51.1872 53.4696 51.1872 54V76C51.1872 76.5304 51.3869 77.0392 51.7425 77.4142C52.098 77.7893 52.5802 78 53.083 78C53.5858 78 54.068 77.7893 54.4236 77.4142C54.7791 77.0392 54.9788 76.5304 54.9788 76V68C54.9788 67.4696 55.1786 66.9609 55.5341 66.5858C55.8897 66.2107 56.3719 66 56.8747 66C57.3775 66 57.8597 66.2107 58.2152 66.5858C58.5708 66.9609 58.7705 67.4696 58.7705 68V76C58.7705 76.5304 58.9702 77.0392 59.3258 77.4142C59.6813 77.7893 60.1635 78 60.6663 78C61.1692 78 61.6514 77.7893 62.0069 77.4142C62.3624 77.0392 62.5622 76.5304 62.5622 76V70C62.5622 69.4696 62.7619 68.9609 63.1175 68.5858C63.473 68.2107 63.9552 68 64.458 68C64.9608 68 65.443 68.2107 65.7986 68.5858C66.1541 68.9609 66.3538 69.4696 66.3538 70V76C66.3538 76.5304 66.5536 77.0392 66.9091 77.4142C67.2647 77.7893 67.7469 78 68.2497 78C68.7525 78 69.2347 77.7893 69.5902 77.4142C69.9458 77.0392 70.1455 76.5304 70.1455 76V72C70.1455 71.4696 70.3452 70.9609 70.7008 70.5858C71.0563 70.2107 71.5385 70 72.0413 70C72.5442 70 73.0264 70.2107 73.3819 70.5858C73.7374 70.9609 73.9372 71.4696 73.9372 72V94C73.9372 94.5304 74.1369 95.0392 74.4925 95.4142C74.848 95.7893 75.3302 96 75.833 96C76.3358 96 76.818 95.7893 77.1736 95.4142C77.5291 95.0392 77.7288 94.5304 77.7288 94V72C77.7288 70.4087 77.1296 68.8826 76.063 67.7574C74.9964 66.6321 73.5498 66 72.0413 66ZM54.9788 4V6C54.9788 6.53043 54.7791 7.03914 54.4236 7.41421C54.068 7.78929 53.5858 8 53.083 8H37.9163C37.4135 8 36.9313 7.78929 36.5758 7.41421C36.2202 7.03914 36.0205 6.53043 36.0205 6V4H54.9788ZM49.2913 48C48.1179 48.0035 46.9743 48.3898 46.0171 49.1059C45.06 49.822 44.3362 50.8329 43.9451 52H32.2288V50C32.2288 48.1615 32.5721 46.341 33.239 44.6424C33.9059 42.9439 34.8835 41.4005 36.1158 40.1005C37.3481 38.8005 38.8111 37.7693 40.4212 37.0657C42.0312 36.3621 43.7569 36 45.4997 36C47.2424 36 48.9681 36.3621 50.5782 37.0657C52.1883 37.7693 53.6513 38.8005 54.8836 40.1005C56.1159 41.4005 57.0934 42.9439 57.7603 44.6424C58.4273 46.341 58.7705 48.1615 58.7705 50V52H54.6376C54.2465 50.8329 53.5227 49.822 52.5656 49.1059C51.6084 48.3898 50.4648 48.0035 49.2913 48ZM64.458 64C63.4786 64.0037 62.5173 64.2797 61.6711 64.8C60.9814 63.6551 59.9442 62.7905 58.7288 62.3474C57.5134 61.9042 56.1915 61.9087 54.9788 62.36V56H62.5622C63.065 56 63.5472 55.7893 63.9027 55.4142C64.2583 55.0392 64.458 54.5304 64.458 54C64.458 53.4696 64.2583 52.9609 63.9027 52.5858C63.5472 52.2107 63.065 52 62.5622 52V50C62.5602 45.5739 61.0124 41.3037 58.2146 38.0054C55.4168 34.707 51.5651 32.6118 47.3955 32.12V30C47.3955 29.4696 47.1958 28.9609 46.8402 28.5858C46.4847 28.2107 46.0025 28 45.4997 28C44.9969 28 44.5147 28.2107 44.1591 28.5858C43.8036 28.9609 43.6038 29.4696 43.6038 30V32.12C39.4342 32.6118 35.5825 34.707 32.7847 38.0054C29.9869 41.3037 28.4392 45.5739 28.4372 50V52C27.9344 52 27.4522 52.2107 27.0966 52.5858C26.7411 52.9609 26.5413 53.4696 26.5413 54C26.5413 54.5304 26.7411 55.0392 27.0966 55.4142C27.4522 55.7893 27.9344 56 28.4372 56H43.6038V77.22L38.1438 75.22C36.9375 74.7953 35.629 74.825 34.441 75.3039C33.2531 75.7827 32.2593 76.6813 31.6288 77.8464C30.9984 79.0115 30.7703 80.3711 30.9834 81.6937C31.1965 83.0163 31.8376 84.2201 32.7976 85.1L36.0205 88H28.4372C26.9288 88 25.4821 87.3679 24.4155 86.2426C23.3489 85.1174 22.7497 83.5913 22.7497 82V10C22.7497 8.4087 23.3489 6.88258 24.4155 5.75736C25.4821 4.63214 26.9288 4 28.4372 4H32.2288V6C32.2288 7.5913 32.8281 9.11742 33.8947 10.2426C34.9613 11.3679 36.4079 12 37.9163 12H53.083C54.5914 12 56.0381 11.3679 57.1047 10.2426C58.1713 9.11742 58.7705 7.5913 58.7705 6V4H62.5622C64.0706 4 65.5172 4.63214 66.5838 5.75736C67.6505 6.88258 68.2497 8.4087 68.2497 10V65.56C67.2114 64.5644 65.861 64.0088 64.458 64Z" fill="#F2F2F2"/>
</g>
<defs>
<clipPath id="clip0_143_610">
<rect width="91" height="96" fill="white"/>
</clipPath>
</defs>
</svg>
