<svg width="148" height="144" viewBox="0 0 148 144" fill="none" xmlns="http://www.w3.org/2000/svg">
<ellipse cx="74" cy="72" rx="74" ry="72" fill="#F2B035"/>
<path d="M73.9999 37C59.6034 37 47.9781 48.6253 47.9781 63.0218C47.9781 68.0415 49.5816 72.8345 51.8125 76.7733L68.7711 106.124C69.8343 108.041 71.9781 109 73.9999 109C76.0219 109 78.0609 108.041 79.2287 106.124L96.1873 76.7908C98.4357 72.8516 100.022 68.1457 100.022 63.0389C100.022 48.6427 88.3965 37 73.9999 37ZM73.9999 70.7081C68.7711 70.7081 64.501 66.438 64.501 61.2092C64.501 55.9804 68.7711 51.7103 73.9999 51.7103C79.2287 51.7103 83.4989 55.9804 83.4989 61.2092C83.4989 66.4554 79.2287 70.7081 73.9999 70.7081Z" fill="#F2F2F2"/>
</svg>
