<svg width="60" height="60" viewBox="0 0 60 60" fill="none" xmlns="http://www.w3.org/2000/svg">
<path d="M59.7641 31.025C59.2787 30.1985 58.2037 29.9155 57.3629 30.3924L56.0626 31.1302C56.1422 30.4247 56.1923 29.7162 56.2127 29.0067L59.4725 25.8026C60.159 25.1279 60.159 24.034 59.4725 23.3593C58.7861 22.6846 57.6731 22.6846 56.9866 23.3593L55.94 24.388C55.8349 23.6785 55.6992 22.9737 55.5332 22.2755L57.8155 18.3896C58.3009 17.5632 58.0127 16.5065 57.1719 16.0296C56.3312 15.5524 55.256 15.8356 54.7707 16.6621L54.0417 17.9035C53.7488 17.2547 53.4276 16.6186 53.0789 15.9971L54.2638 11.6506C54.515 10.7289 53.9585 9.78152 53.0207 9.53457C52.0832 9.28739 51.1191 9.8345 50.8679 10.7562L50.4725 12.2069C50.022 11.6621 49.55 11.1347 49.0578 10.6259V6.04444C48.9713 3.75451 45.6279 3.75623 45.5422 6.04444V7.54929C44.6215 6.87006 43.7861 6.3423 43.1137 5.95967C42.2738 5.48166 41.1983 5.76328 40.7117 6.58925C40.2254 7.41499 40.512 8.47202 41.3523 8.95014C42.0232 9.33196 42.8775 9.87816 43.815 10.597L42.7516 10.9453C41.8306 11.247 41.3328 12.2255 41.6397 13.1307C41.936 14.0044 42.9123 14.535 43.8631 14.2235L46.7684 13.2719C47.2031 13.7357 47.6184 14.2168 48.0133 14.7137L46.8821 14.7805C45.9131 14.8378 45.1747 15.6563 45.2329 16.6087C45.2907 17.5557 46.1172 18.2863 47.0929 18.2298L50.2053 18.0461C50.4983 18.5952 50.773 19.1699 51.0261 19.7692L49.862 19.5349C48.911 19.3438 47.982 19.9462 47.7873 20.881C47.5926 21.8159 48.2056 22.7288 49.1568 22.9202L52.2132 23.5353C52.3454 24.1513 52.4509 24.7726 52.5293 25.3974L51.4879 24.8857C50.6196 24.4589 49.5637 24.8048 49.1297 25.6583C48.6955 26.5118 49.0474 27.5495 49.9157 27.9764L52.6823 29.336C52.6524 29.9656 52.5954 30.5936 52.5115 31.2185L51.6498 30.4675C50.9232 29.8342 49.8125 29.9 49.1682 30.6139C48.5241 31.3278 48.5908 32.4199 49.3172 33.0529L51.6325 35.0709C51.4373 35.6707 51.2161 36.262 50.9696 36.8433L50.3365 35.9008C49.8016 35.1044 48.7109 34.8852 47.9011 35.4109C47.0909 35.9366 46.8678 37.0084 47.4027 37.8047L49.1031 40.336C48.7564 40.8641 48.3873 41.3777 47.9968 41.8754L47.637 40.8144C47.3301 39.9093 46.3346 39.42 45.4136 39.7216C44.4927 40.0233 43.9949 41.0017 44.3018 41.9069L45.2762 44.781C44.8026 45.2042 44.3112 45.6078 43.8032 45.9907L43.735 44.8745C43.6769 43.9219 42.8463 43.1978 41.8752 43.2533C40.906 43.3105 40.1676 44.129 40.2259 45.0815L40.4109 48.1125C39.8415 48.4023 39.2598 48.6681 38.6674 48.9093L38.8978 47.8032C39.0924 46.8684 38.4793 45.9555 37.5282 45.764C36.5774 45.5732 35.6483 46.1754 35.4535 47.1102L34.8329 50.0899C31.7369 50.7673 28.263 50.7673 25.167 50.0899L24.5464 47.1102C24.3517 46.1754 23.4226 45.5733 22.4717 45.764C21.5208 45.9555 20.9075 46.8684 21.1022 47.8032L21.3326 48.9093C20.7401 48.6681 20.1584 48.4023 19.589 48.1125L19.7741 45.0815C19.8323 44.129 19.0938 43.3105 18.1248 43.2533C17.1536 43.1978 16.323 43.9219 16.2649 44.8745L16.1967 45.9907C15.6887 45.6079 15.1973 45.2043 14.7238 44.781L15.6982 41.9069C16.0051 41.0017 15.5073 40.0233 14.5863 39.7216C13.6654 39.4199 12.6698 39.9092 12.3629 40.8144L12.0031 41.8754C11.6126 41.3777 11.2435 40.8641 10.8969 40.336L12.5973 37.8047C13.1321 37.0084 12.909 35.9367 12.0989 35.4109C11.289 34.8852 10.1983 35.1044 9.66349 35.9008L9.03032 36.8433C8.78376 36.262 8.56258 35.6707 8.3674 35.0709L10.6828 33.0529C11.4091 32.4199 11.4759 31.3278 10.8317 30.6139C10.1874 29.9 9.07673 29.8342 8.35017 30.4675L7.48849 31.2185C7.40456 30.5936 7.34756 29.9656 7.31763 29.336L10.0842 27.9764C10.9526 27.5496 11.3045 26.5118 10.8703 25.6583C10.4362 24.8048 9.38036 24.4589 8.512 24.8857L7.47068 25.3974C7.54904 24.7726 7.65449 24.1513 7.78673 23.5353L10.8431 22.9202C11.7942 22.7288 12.4073 21.8159 12.2127 20.881C12.0179 19.9462 11.089 19.3438 10.138 19.5349L8.97419 19.7692C9.22161 19.1831 9.49551 18.6081 9.79509 18.0461L12.9069 18.2297C13.8826 18.2862 14.7091 17.5556 14.7669 16.6086C14.8251 15.6561 14.0866 14.8377 13.1177 14.7804L11.987 14.7137C12.3819 14.2168 12.7972 13.7358 13.2318 13.272L16.1367 14.2235C17.0876 14.5351 18.0637 14.0044 18.3601 13.1307C18.667 12.2255 18.1692 11.247 17.2482 10.9453L16.1851 10.5971C17.1243 9.87689 17.979 9.3307 18.6476 8.95025C19.4878 8.47213 19.7744 7.41511 19.2881 6.58937C18.8017 5.76363 17.7263 5.48189 16.8861 5.95978C16.2116 6.34368 15.3767 6.87122 14.4576 7.54906V6.04444C14.3711 3.75451 11.0277 3.75623 10.942 6.04444V10.6252C10.4497 11.1341 9.97775 11.6615 9.5272 12.2064L9.13193 10.7563C8.88056 9.83462 7.91658 9.2875 6.97908 9.53468C6.04134 9.78163 5.48482 10.729 5.73607 11.6507L6.92083 15.9969C6.57213 16.6184 6.25089 17.2545 5.95802 17.9033L5.22923 16.6625C4.74384 15.8361 3.66876 15.5528 2.82806 16.0299C1.98724 16.5069 1.69908 17.5636 2.18447 18.39L4.46658 22.2758C4.3006 22.974 4.16489 23.6788 4.05982 24.3883L3.01322 23.3596C2.32685 22.6849 1.2138 22.6849 0.527319 23.3596C-0.159166 24.0343 -0.159166 25.1283 0.527319 25.803L3.78712 29.007C3.8074 29.7225 3.85849 30.4304 3.93724 31.1305L2.63693 30.3928C1.79611 29.9157 0.721029 30.1988 0.235756 31.0253C-0.249634 31.8518 0.0385295 32.9083 0.87935 33.3854L4.86994 35.6496C5.07649 36.3303 5.31181 37.0023 5.57529 37.6637L4.12521 37.2819C3.18888 37.0351 2.22372 37.5819 1.97236 38.5035C1.72111 39.4252 2.27763 40.3726 3.21536 40.6195L7.67915 41.7951C8.05883 42.3987 8.46358 42.9867 8.8924 43.5576H7.37669C5.04689 43.6426 5.04865 46.9289 7.37669 47.0131H12.0061C12.5298 47.4991 13.0735 47.9639 13.6359 48.4063L12.1707 48.7922C11.233 49.0391 10.6765 49.9865 10.9277 50.9082C11.1882 51.8637 12.1779 52.3679 13.0806 52.1298L17.5392 50.9556C18.1733 51.293 18.8213 51.6045 19.4816 51.8893L18.1794 52.6282C17.3386 53.1053 17.0504 54.1618 17.5358 54.9883C17.9488 55.6915 18.9765 56.1659 19.937 55.6208L23.9268 53.3571C27.7992 54.2846 32.2004 54.2846 36.0727 53.3571L40.0626 55.6208C41.0231 56.1659 42.0508 55.6915 42.4638 54.9883C42.9492 54.162 42.661 53.1053 41.8202 52.6282L40.518 51.8893C41.1783 51.6045 41.8263 51.293 42.4604 50.9556L46.919 52.1298C47.8217 52.3678 48.8114 51.8636 49.0719 50.9082C49.3231 49.9865 48.7666 49.0391 47.8289 48.7922L46.3637 48.4063C46.9262 47.9636 47.4702 47.499 47.9935 47.0131H52.6229C54.9527 46.9281 54.9509 43.6418 52.6229 43.5576H51.1077C51.5365 42.9867 51.9412 42.3987 52.3209 41.7951L56.7847 40.6195C57.7224 40.3726 58.2789 39.4252 58.0277 38.5035C57.7762 37.5817 56.8112 37.0351 55.8748 37.2819L54.4248 37.6637C54.6883 37.0023 54.9236 36.3303 55.1301 35.6496L59.1206 33.3854C59.9613 32.908 60.2495 31.8514 59.7641 31.025Z" fill="white"/>
<path d="M37.5146 33.9586C35.9423 33.958 35.3314 33.0665 35.2669 32.9648C34.0426 31.0147 31.1348 32.637 32.2086 34.6691C32.7796 35.6882 34.5392 37.413 37.514 37.4141C46.081 37.0936 46.0745 25.023 37.514 24.7056H35.5063V22.6093H41.2797C43.6096 22.5243 43.6078 19.238 41.2797 19.1538H33.7485C32.7777 19.1538 31.9906 19.9274 31.9906 20.8815V26.4333C31.9906 27.3875 32.7777 28.161 33.7485 28.161H37.514C41.4221 28.3072 41.4192 33.8135 37.5146 33.9586ZM17.1538 21.8988C16.08 23.9327 18.9894 25.5521 20.212 23.6031C20.2766 23.5014 20.8894 22.6098 22.4615 22.6093C25.3651 22.5813 26.6287 26.5511 23.8711 27.8331L21.4215 28.9034C18.6968 30.0924 16.9362 32.7546 16.9362 35.6863C16.9362 36.6405 17.7232 37.4141 18.694 37.4141H26.2253C28.5551 37.3291 28.5533 34.0428 26.2253 33.9586H20.855C21.2708 33.114 21.9776 32.4416 22.85 32.0608L25.2994 30.9906C31.4912 28.173 29.158 19.1604 22.4591 19.1538C19.4844 19.1548 17.7246 20.8798 17.1538 21.8988Z" fill="white"/>
</svg>
