<svg width="35" height="46" viewBox="0 0 35 46" fill="none" xmlns="http://www.w3.org/2000/svg">
<path d="M27.0742 2.40372C27.0742 1.64347 26.4383 1.0271 25.6539 1.0271H9.25535C8.47098 1.0271 7.83505 1.64347 7.83505 2.40372V15.6772H27.0742V2.40372Z" fill="#73071B"/>
<path d="M13.1048 13.1683C11.895 13.1683 10.9143 12.2178 10.9143 11.0452V1.74232C10.9143 1.47322 11.023 1.22593 11.2041 1.0271H9.25535C8.47098 1.0271 7.83505 1.64347 7.83505 2.40372V15.6772H27.0742V13.1683H13.1048Z" fill="#73071B"/>
<path d="M9.93092 16.8294L7.13497 26.2352C6.79634 27.3744 6.75905 28.5778 7.02655 29.7347C7.29405 30.8915 7.85772 31.9644 8.66559 32.8545L12.2177 36.7683L12.931 37.3881H21.9667L22.7824 36.7683L26.3345 32.8545C27.1423 31.9644 27.706 30.8914 27.9735 29.7346C28.241 28.5778 28.2037 27.3744 27.8651 26.2352L25.0692 16.8294L23.74 12.8899H11.0123L9.93092 16.8294Z" fill="#73071B"/>
<path d="M20.5765 35.8362H14.3326V42.5168C14.3326 43.7266 15.3446 44.7074 16.5928 44.7074H18.3163C19.5646 44.7074 20.5765 43.7266 20.5765 42.5168V35.8362Z" fill="#B5ADB6"/>
<path d="M16.5183 42.5168V35.8362H14.3327V42.5168C14.3327 43.7266 15.3447 44.7074 16.5929 44.7074H18.3164C18.3945 44.7074 18.4715 44.7037 18.5475 44.6962C17.4078 44.584 16.5183 43.651 16.5183 42.5168Z" fill="#A79BA7"/>
<path d="M7.37713 16.2826H1.25644C1.11492 16.2826 0.979201 16.2281 0.879134 16.1311C0.779067 16.0341 0.72285 15.9026 0.72285 15.7654V14.2804C0.72285 14.1432 0.779067 14.0117 0.879134 13.9147C0.979201 13.8177 1.11492 13.7632 1.25644 13.7632H7.37713V16.2826ZM27.6229 16.2826H33.7436C33.8851 16.2826 34.0208 16.2281 34.1209 16.1311C34.2209 16.0341 34.2771 15.9026 34.2771 15.7654V14.2804C34.2771 14.1432 34.2209 14.0117 34.1209 13.9147C34.0208 13.8177 33.8851 13.7632 33.7436 13.7632H27.6229V16.2826Z" fill="#B5ADB6"/>
<path d="M19.6388 23.639L19.3158 18.48L19.0512 15.563L15.8444 15.677L15.6843 18.4799L15.3613 23.6389C15.3322 24.104 15.7136 24.4967 16.1943 24.4967H18.8058C19.2865 24.4968 19.6678 24.104 19.6388 23.639Z" fill="#73071B"/>
<path d="M23.74 12.8899H11.0123L10.9114 13.2577L9.93093 16.8294L7.13497 26.2353C6.79634 27.3745 6.75905 28.5779 7.02655 29.7347C7.29405 30.8915 7.85772 31.9645 8.66559 32.8546L12.2177 36.7683L12.931 37.3881H15.7834L15.0701 36.7683L11.518 32.8546C10.7101 31.9645 10.1464 30.8915 9.87894 29.7347C9.61144 28.5779 9.64873 27.3745 9.98736 26.2353L11.8624 19.9276C12.0423 19.3223 12.7346 19.0177 13.3261 19.2787C13.8595 19.514 14.4388 19.6354 15.0248 19.6347H19.9754C22.2471 19.6347 24.0887 17.8497 24.0887 15.6479V13.9235L23.74 12.8899Z" fill="#73071B"/>
<path d="M15.6842 18.48L15.6119 19.6344H19.3881L19.3158 18.48L19.0512 15.563L15.8444 15.677L15.6842 18.48Z" fill="#73071B"/>
<path d="M22.5763 11.6573L28.8398 12.9935C29.0607 13.0406 29.2583 13.1594 29.4 13.3303C29.5417 13.5011 29.6189 13.7137 29.6189 13.9329V15.867C29.6189 16.3983 29.1746 16.8289 28.6264 16.8289H6.37347C5.82537 16.8289 5.38106 16.3983 5.38106 15.867V13.9329C5.38106 13.4813 5.70515 13.0906 6.16007 12.9935L12.4237 11.6573L14.4661 11.1189C14.4661 11.1189 20.4879 11.1634 20.5338 11.1189C20.5797 11.0744 22.5763 11.6573 22.5763 11.6573Z" fill="#73071B"/>
<path d="M24.9399 15.8883C24.4665 15.8883 24.0831 15.5162 24.0844 15.0573C24.087 14.0623 24.0886 12.5296 24.0886 12.5296C24.0886 12.34 24.0739 12.1536 24.0475 11.9709L22.5763 11.657C22.5763 11.657 20.5797 11.0741 20.5338 11.1186C20.4879 11.163 14.4661 11.1186 14.4661 11.1186L12.4237 11.657L10.9525 11.9709C10.9253 12.156 10.9115 12.3427 10.9113 12.5296C10.9113 12.5296 10.9129 14.0623 10.9155 15.0573C10.9168 15.5161 10.5334 15.8883 10.06 15.8883H7.59035C7.04225 15.8883 6.59794 15.4576 6.59794 14.9264V12.9922C6.59794 12.9607 6.59985 12.9296 6.60302 12.8987L6.16007 12.9933C5.93923 13.0404 5.74161 13.1592 5.59994 13.33C5.45827 13.5009 5.38105 13.7135 5.38106 13.9326V15.8667C5.38106 16.398 5.82537 16.8286 6.37347 16.8286H28.6265C29.1671 16.8286 29.6059 16.4094 29.6178 15.8883H24.9399Z" fill="#73071B"/>
<path d="M19.9753 18.3151H15.0248C13.5047 18.3151 12.2724 17.1207 12.2724 15.6473V12.5298C12.2724 11.0565 13.5047 9.86206 15.0248 9.86206H19.9753C21.4954 9.86206 22.7277 11.0565 22.7277 12.5298V15.6473C22.7277 17.1207 21.4954 18.3151 19.9753 18.3151Z" fill="#73071B"/>
<path d="M16.8653 17.2814C15.3452 17.2814 14.1129 16.087 14.1129 14.6137V12.1071C14.1129 11.1645 14.6178 10.3366 15.3793 9.86206H15.0247C13.5046 9.86206 12.2723 11.0565 12.2723 12.5298V15.6472C12.2723 17.1206 13.5046 18.315 15.0247 18.315H19.9752C20.8598 18.315 21.6464 17.91 22.15 17.2814H16.8653Z" fill="#73071B"/>
<path d="M15.4281 15.677C15.3131 15.677 15.2027 15.6327 15.1213 15.5538C15.04 15.4749 14.9942 15.368 14.9942 15.2565V12.921C14.9942 12.8095 15.04 12.7025 15.1213 12.6237C15.2027 12.5448 15.3131 12.5005 15.4281 12.5005H19.572C19.687 12.5005 19.7974 12.5448 19.8788 12.6237C19.9601 12.7025 20.0058 12.8095 20.0058 12.921V15.2565C20.0058 15.368 19.9601 15.4749 19.8788 15.5538C19.7974 15.6327 19.687 15.677 19.572 15.677H15.4281Z" fill="#F2B035"/>
<path d="M21.8828 37.9473H13.1172C12.4846 37.9473 12.0323 37.3543 12.2177 36.7682L13.9504 31.2893C14.4284 29.7775 15.8687 28.7454 17.5 28.7454C19.1314 28.7454 20.5716 29.7775 21.0497 31.2893L22.7824 36.7682C22.9677 37.3543 22.5154 37.9473 21.8828 37.9473Z" fill="#73071B"/>
<path d="M22.7316 36.6079H15.2575C14.6249 36.6079 14.1726 36.1012 14.358 35.6003L16.0906 30.919C16.4562 29.9314 17.3844 29.1839 18.5301 28.8864C18.1953 28.7927 17.8485 28.7453 17.5 28.7454C15.8687 28.7454 14.4285 29.7775 13.9504 31.2893L12.2177 36.7682C12.0323 37.3544 12.4846 37.9474 13.1172 37.9474H21.8828C22.5154 37.9474 22.9677 37.3544 22.7823 36.7682L22.7316 36.6079Z" fill="#73071B"/>
<path d="M20.9042 7.12924V7.3359H14.005V7.12924C14.005 5.28337 15.5492 3.78662 17.4546 3.78662C18.4073 3.78662 19.2692 4.16125 19.8934 4.7654C20.5177 5.37043 20.9042 6.20674 20.9042 7.12924Z" fill="#C6C6C6"/>
<path d="M18.717 4.01878C18.315 3.86518 17.8868 3.78642 17.4547 3.78662C15.5493 3.78662 14.0051 5.28337 14.0051 7.12924V7.3359H15.2787C15.2927 5.50515 16.8253 4.02424 18.717 4.01878Z" fill="#C6C6C6"/>
<path d="M31.8469 9.96407C33.2125 9.96407 34.3194 8.89114 34.3194 7.56761C34.3194 6.24408 33.2125 5.17114 31.8469 5.17114C30.4814 5.17114 29.3744 6.24408 29.3744 7.56761C29.3744 8.89114 30.4814 9.96407 31.8469 9.96407Z" fill="#73071B"/>
<path d="M3.15307 9.96407C4.5186 9.96407 5.62557 8.89114 5.62557 7.56761C5.62557 6.24408 4.5186 5.17114 3.15307 5.17114C1.78755 5.17114 0.680571 6.24408 0.680571 7.56761C0.680571 8.89114 1.78755 9.96407 3.15307 9.96407Z" fill="#73071B"/>
<path d="M30.7015 7.56761C30.7015 6.46694 31.4674 5.54023 32.5105 5.25917C32.2945 5.20082 32.0713 5.1712 31.847 5.17114C30.4815 5.17114 29.3745 6.2441 29.3745 7.56761C29.3745 8.89111 30.4815 9.96407 31.847 9.96407C32.077 9.96407 32.2993 9.93303 32.5105 9.87604C31.4674 9.5949 30.7015 8.66827 30.7015 7.56761ZM2.0076 7.56761C2.0076 6.46694 2.77346 5.54023 3.81659 5.25917C3.60055 5.20082 3.37734 5.1712 3.15307 5.17114C1.78758 5.17114 0.680571 6.2441 0.680571 7.56761C0.680571 8.89111 1.78758 9.96407 3.15307 9.96407C3.38308 9.96407 3.60537 9.93303 3.81659 9.87604C2.77346 9.5949 2.0076 8.66827 2.0076 7.56761Z" fill="#73071B"/>
<path d="M19.9753 11.8411H15.0248C14.6328 11.8411 14.3139 12.1503 14.3139 12.5302V15.6476C14.3139 16.0275 14.6329 16.3367 15.0248 16.3367H19.9753C20.3673 16.3367 20.6862 16.0275 20.6862 15.6476V12.5302C20.6862 12.1502 20.3673 11.8411 19.9753 11.8411ZM19.3253 15.0176H15.6747V13.1602H19.3253V15.0176Z" fill="black"/>
<path d="M33.7436 13.1041H30.0597C29.8281 12.73 29.4457 12.4476 28.9862 12.3496L27.7547 12.0869V8.22755H28.7688C29.0808 9.59652 30.3421 10.624 31.847 10.624C33.5856 10.624 35 9.25311 35 7.56799C35 5.88288 33.5856 4.51198 31.847 4.51198C30.3422 4.51198 29.0809 5.53947 28.7688 6.90844H27.7547V2.4036C27.7547 1.28087 26.8123 0.367432 25.6539 0.367432H24.3472C23.9714 0.367432 23.6667 0.662648 23.6667 1.02698C23.6667 1.39132 23.9714 1.68654 24.3472 1.68654H25.6539C26.0618 1.68654 26.3937 2.00822 26.3937 2.4036V6.90844H26.1539C25.641 6.90844 25.1576 7.17288 24.8924 7.5986L22.9023 10.7938C22.298 9.84029 21.2121 9.20281 19.9752 9.20281H15.0247C13.7879 9.20281 12.7019 9.84029 12.0976 10.7938L10.1075 7.5986C9.84238 7.17288 9.35896 6.90844 8.84606 6.90844H8.51553V2.4036C8.51553 2.00822 8.84742 1.68654 9.25535 1.68654H21.4472C21.823 1.68654 22.1277 1.39132 22.1277 1.02698C22.1277 0.662648 21.823 0.367432 21.4472 0.367432H9.25535C8.09699 0.367432 7.15457 1.28087 7.15457 2.4036V6.90844H6.2312C5.91918 5.53947 4.65793 4.51198 3.15298 4.51198C1.4144 4.51198 0 5.88288 0 7.56799C0 9.25311 1.4144 10.624 3.15298 10.624C4.65784 10.624 5.91909 9.59652 6.2312 8.22755H7.15457V12.1062L6.01372 12.3496C5.55426 12.4476 5.17192 12.73 4.94029 13.1041H1.25644C0.587027 13.1041 0.0424618 13.6319 0.0424618 14.2808V15.7658C0.0424618 16.4146 0.587027 16.9425 1.25644 16.9425H5.12483C5.4315 17.2766 5.8769 17.4886 6.37347 17.4886H9.02671L6.48108 26.0525C5.72484 28.5965 6.35051 31.3021 8.1546 33.29L11.4967 36.9723C11.4808 37.326 11.5889 37.6752 11.8136 37.9696C12.1225 38.3745 12.5977 38.6067 13.1172 38.6067H13.6522V42.5172C13.6522 44.0888 14.9714 45.3674 16.5928 45.3674H18.3163C19.9379 45.3674 21.257 44.0888 21.257 42.5172V38.6067H21.8827C22.4022 38.6067 22.8774 38.3745 23.1863 37.9696C23.411 37.6752 23.5191 37.326 23.5032 36.9722L26.8453 33.29C28.6495 31.3022 29.2752 28.5965 28.5189 26.0525L27.5144 22.6733C27.4645 22.5052 27.3477 22.3632 27.1897 22.2786C27.0318 22.194 26.8456 22.1736 26.6722 22.222C26.4988 22.2705 26.3523 22.3837 26.265 22.5368C26.1777 22.6899 26.1567 22.8703 26.2067 23.0384L27.2111 26.4176C27.8382 28.527 27.3195 30.7704 25.8235 32.4186L23.076 35.4458L21.7003 31.0958C21.131 29.2954 19.443 28.0857 17.5 28.0857C15.557 28.0857 13.8691 29.2954 13.2998 31.0958L13.2413 31.2809C13.1916 31.4472 13.2113 31.6258 13.2963 31.7782C13.3812 31.9306 13.5246 32.0444 13.6954 32.0952C13.8663 32.146 14.0509 32.1296 14.2093 32.0496C14.3678 31.9696 14.4875 31.8324 14.5425 31.6676L14.6011 31.4826C14.9941 30.2398 16.159 29.4049 17.5001 29.4049C18.8412 29.4049 20.0062 30.2398 20.3992 31.4826L22.1318 36.9613C22.1653 37.0673 22.1214 37.1471 22.0922 37.1855C22.0683 37.2175 22.0368 37.2435 22.0004 37.2613C21.964 37.2791 21.9237 37.2881 21.8829 37.2877H13.1173C13.0032 37.2877 12.9372 37.2236 12.908 37.1855C12.8789 37.1471 12.8349 37.0673 12.8683 36.9614L13.6926 34.3549C13.7188 34.2721 13.7279 34.1851 13.7194 34.0989C13.7109 34.0127 13.685 33.9289 13.6431 33.8524C13.6012 33.7759 13.5441 33.7081 13.4752 33.653C13.4063 33.5978 13.3269 33.5564 13.2414 33.531C13.156 33.5056 13.0662 33.4968 12.9773 33.505C12.8883 33.5133 12.8019 33.5384 12.7229 33.579C12.644 33.6196 12.5741 33.6749 12.5172 33.7417C12.4603 33.8085 12.4176 33.8855 12.3914 33.9683L11.9241 35.446L9.1765 32.4187C7.68053 30.7706 7.16183 28.5272 7.78887 26.4178L10.443 17.4888H12.1671C12.7738 18.3705 13.8027 18.9564 14.9716 18.9737L14.682 23.5993C14.6699 23.7992 14.6999 23.9994 14.7702 24.1877C14.8405 24.376 14.9497 24.5484 15.0911 24.6945C15.2329 24.8401 15.4039 24.9562 15.5936 25.0356C15.7832 25.115 15.9876 25.1562 16.1942 25.1565H18.8058C19.2218 25.1565 19.6239 24.9881 19.909 24.6945C20.0504 24.5484 20.1595 24.376 20.2299 24.1877C20.3002 23.9994 20.3302 23.7992 20.3181 23.5993L20.0285 18.9737C21.1974 18.9563 22.2264 18.3705 22.833 17.4888H24.557L25.4015 20.3302C25.4424 20.4676 25.5282 20.5885 25.6461 20.6746C25.764 20.7606 25.9075 20.8072 26.0551 20.8073C26.1606 20.8074 26.2647 20.7837 26.3591 20.7381C26.4535 20.6925 26.5357 20.6262 26.5992 20.5445C26.6626 20.4628 26.7056 20.3679 26.7248 20.2674C26.7439 20.1668 26.7386 20.0633 26.7094 19.965L25.9734 17.4889H28.6266C29.1232 17.4889 29.5686 17.2769 29.8753 16.9428H33.7437C34.4131 16.9428 34.9576 16.4149 34.9576 15.7661V14.281C34.9576 13.6319 34.413 13.1041 33.7436 13.1041ZM31.8469 5.83108C32.8351 5.83108 33.6389 6.61024 33.6389 7.56799C33.6389 8.52575 32.8351 9.30491 31.8469 9.30491C30.8588 9.30491 30.0549 8.52575 30.0549 7.56799C30.0549 6.61024 30.8589 5.83108 31.8469 5.83108ZM3.15307 9.30491C2.16492 9.30491 1.36105 8.52575 1.36105 7.56799C1.36105 6.61024 2.16492 5.83108 3.15307 5.83108C4.14122 5.83108 4.94509 6.61024 4.94509 7.56799C4.94509 8.52575 4.14113 9.30491 3.15307 9.30491ZM19.8962 38.6067V42.5171C19.8962 43.3614 19.1875 44.0482 18.3164 44.0482H16.5929C15.7218 44.0482 15.0132 43.3613 15.0132 42.5171V38.6067H19.8962ZM26.0575 8.28022C26.0778 8.24769 26.1147 8.22746 26.1538 8.22746H26.3937V11.7964L24.1638 11.3208L26.0575 8.28022ZM8.51553 8.22755H8.84606C8.88526 8.22755 8.92218 8.24769 8.94242 8.28031L10.8361 11.3209L8.51553 11.8159V8.22755ZM1.40333 14.4232H4.70058V15.6233H1.40333V14.4232ZM6.37347 16.1694C6.29077 16.1694 6.21148 16.1375 6.153 16.0808C6.09453 16.0241 6.06163 15.9473 6.06154 15.8671V13.9331C6.06187 13.8643 6.08628 13.7976 6.13075 13.744C6.17523 13.6904 6.23716 13.6529 6.30642 13.6378L11.5924 12.5102C11.5924 12.5168 11.5918 12.5234 11.5918 12.5301V15.6475C11.5918 15.8251 11.6066 15.9994 11.6344 16.1695L6.37347 16.1694ZM18.9179 23.7903C18.9036 23.8053 18.8863 23.8172 18.867 23.8253C18.8476 23.8334 18.8268 23.8374 18.8058 23.8372H16.1942C16.1392 23.8372 16.1029 23.8117 16.082 23.7903C16.0675 23.7756 16.0562 23.7581 16.0491 23.7389C16.0419 23.7197 16.039 23.6993 16.0405 23.6789L16.3349 18.9748H18.6649L18.9594 23.6789C18.9609 23.6993 18.958 23.7197 18.9508 23.7389C18.9437 23.7581 18.9325 23.7756 18.9179 23.7903ZM19.9753 17.6557H15.0248C13.8823 17.6557 12.9529 16.7549 12.9529 15.6475V12.5301C12.9529 11.4228 13.8823 10.5219 15.0248 10.5219H19.9753C21.1178 10.5219 22.0472 11.4228 22.0472 12.5301V15.6475C22.0472 16.7549 21.1178 17.6557 19.9753 17.6557ZM28.6265 16.1694H23.3656C23.3934 15.9993 23.4082 15.8251 23.4082 15.6474V12.53C23.4082 12.5234 23.4077 12.5168 23.4076 12.5101L28.6935 13.6377C28.7628 13.6529 28.8247 13.6903 28.8692 13.7439C28.9137 13.7976 28.9381 13.8642 28.9385 13.933V15.8671C28.9384 15.9473 28.9055 16.0241 28.847 16.0808C28.7885 16.1375 28.7092 16.1694 28.6265 16.1694ZM33.5967 15.6233H30.2994V14.4232H33.5967V15.6233Z" fill="black"/>
<path d="M14.4662 25.9805C14.4662 25.8056 14.3945 25.6378 14.2669 25.5141C14.1393 25.3904 13.9662 25.3209 13.7857 25.3209H9.9489C9.57309 25.3209 9.26842 25.6162 9.26842 25.9805C9.26842 26.3448 9.57309 26.6401 9.9489 26.6401H13.7857C13.9662 26.6401 14.1393 26.5706 14.2669 26.4469C14.3945 26.3232 14.4662 26.1554 14.4662 25.9805ZM10.6529 27.8456C10.2771 27.8456 9.9724 28.1408 9.9724 28.5052C9.9724 28.8695 10.2771 29.1647 10.6529 29.1647H11.8673C12.2431 29.1647 12.5478 28.8695 12.5478 28.5052C12.5478 28.1408 12.2431 27.8456 11.8673 27.8456H10.6529ZM25.7317 25.9805C25.7317 25.8056 25.66 25.6378 25.5324 25.5141C25.4048 25.3904 25.2317 25.3209 25.0512 25.3209H21.2144C20.8386 25.3209 20.5339 25.6162 20.5339 25.9805C20.5339 26.3448 20.8386 26.6401 21.2144 26.6401H25.0512C25.2317 26.6401 25.4048 26.5706 25.5324 26.4469C25.66 26.3232 25.7317 26.1554 25.7317 25.9805ZM23.1328 27.8456C22.757 27.8456 22.4523 28.1408 22.4523 28.5052C22.4523 28.8695 22.757 29.1647 23.1328 29.1647H24.3472C24.723 29.1647 25.0277 28.8695 25.0277 28.5052C25.0277 28.1408 24.723 27.8456 24.3472 27.8456H23.1328ZM17.4546 2.50806C17.2741 2.50806 17.101 2.57755 16.9734 2.70124C16.8458 2.82493 16.7741 2.99269 16.7741 3.16761V3.18238C14.9601 3.47523 13.5422 4.91718 13.3478 6.70818C13.1934 6.75629 13.0618 6.85625 12.9767 6.99005C12.8916 7.12386 12.8586 7.28271 12.8837 7.438C12.9087 7.5933 12.9901 7.73482 13.1133 7.83709C13.2364 7.93935 13.3932 7.99564 13.5554 7.9958H21.4968C21.6773 7.9958 21.8504 7.92632 21.978 7.80263C22.1056 7.67894 22.1773 7.51117 22.1773 7.33625C22.1773 7.17157 22.1137 7.01286 21.999 6.89135C21.8843 6.76985 21.7268 6.69434 21.5576 6.67969C21.3513 4.90206 19.9393 3.47373 18.1351 3.18247V3.16761C18.1351 2.80327 17.8305 2.50806 17.4546 2.50806ZM20.1832 6.67661H14.726C14.949 5.41203 16.0873 4.44618 17.4546 4.44618C18.8219 4.44618 19.9603 5.41203 20.1832 6.67661Z" fill="black"/>
</svg>
