<svg width="83" height="82" viewBox="0 0 83 82" fill="none" xmlns="http://www.w3.org/2000/svg">
<path d="M44.4492 72.2488C43.1149 72.2488 41.8169 71.8349 40.71 71.0429C39.3089 70.0404 38.3821 68.5522 38.1002 66.8527C37.8183 65.1531 38.2151 63.4455 39.2176 62.0443C40.2201 60.6434 41.7081 59.7165 43.4077 59.4345C45.1069 59.1526 46.8147 59.5495 48.216 60.552C51.1082 62.6213 51.7777 66.6581 49.7084 69.5503C48.7059 70.9514 47.2177 71.8782 45.5182 72.1601C45.1649 72.2188 44.8073 72.2484 44.4492 72.2485V72.2488ZM44.4716 61.7629C44.2497 61.7629 44.0263 61.7812 43.803 61.8184C42.7401 61.9946 41.8096 62.5743 41.1827 63.4505C40.5557 64.3267 40.3075 65.3947 40.4839 66.4575C40.6602 67.5204 41.2398 68.4509 42.116 69.0779C42.9922 69.7048 44.0598 69.9529 45.1228 69.7768C46.1857 69.6004 47.1164 69.0209 47.7433 68.1447C49.0374 66.3359 48.6188 63.8113 46.81 62.5172C46.1178 62.022 45.306 61.7631 44.4716 61.7631V61.7629Z" fill="#F2F2F2"/>
<path d="M46.2329 66.732C46.1534 66.732 46.0741 66.7239 45.9962 66.7078C45.919 66.6927 45.8435 66.67 45.7707 66.6402C45.6977 66.6096 45.6276 66.5723 45.5613 66.529C45.4955 66.4845 45.434 66.4338 45.3778 66.3776C45.2381 66.2368 45.1349 66.0639 45.0774 65.8741C45.0199 65.6843 45.0097 65.4832 45.0477 65.2886C45.0638 65.2112 45.0863 65.1355 45.1169 65.0614C45.2089 64.8409 45.3634 64.6522 45.5615 64.5185C45.6275 64.4751 45.6976 64.4384 45.7709 64.4089C45.8434 64.3779 45.919 64.3547 45.9964 64.3397C46.152 64.3075 46.3126 64.3075 46.4683 64.3397C46.5457 64.3546 46.6213 64.3779 46.6938 64.4089C46.7679 64.438 46.8371 64.4751 46.9032 64.5185C46.9694 64.5636 47.0305 64.6135 47.0869 64.6699C47.1432 64.7247 47.1931 64.7875 47.2367 64.8536C47.3246 64.9855 47.3859 65.1332 47.4171 65.2886C47.4551 65.4832 47.4449 65.6843 47.3873 65.8741C47.3297 66.0639 47.2266 66.2368 47.0869 66.3776C47.0305 66.4336 46.969 66.4843 46.9032 66.529C46.7714 66.6166 46.6236 66.6774 46.4683 66.7078C46.3909 66.7239 46.3121 66.732 46.2331 66.732H46.2329ZM43.3222 65.1243C43.2449 65.1243 43.1643 65.1164 43.087 65.1002C43.0096 65.0853 42.934 65.0621 42.8615 65.031C42.7874 65.0019 42.7182 64.9632 42.6521 64.9198C42.5859 64.8763 42.5248 64.8264 42.4684 64.77C42.4128 64.7136 42.3627 64.6521 42.3186 64.5863C42.2753 64.5206 42.2382 64.451 42.2076 64.3785C42.1774 64.3051 42.1542 64.2291 42.1382 64.1514C42.1221 64.074 42.1157 63.9951 42.1157 63.9161C42.1157 63.8372 42.1221 63.7582 42.1382 63.6795C42.1544 63.6021 42.1769 63.5264 42.2076 63.454C42.2381 63.3809 42.2753 63.3108 42.3186 63.2445C42.3622 63.1785 42.4136 63.1173 42.4684 63.0609C42.5252 63.0057 42.5867 62.9556 42.6521 62.9111C42.7839 62.8235 42.9317 62.7627 43.087 62.7323C43.2427 62.7 43.4033 62.7 43.5589 62.7323C43.7142 62.7628 43.862 62.8235 43.9939 62.9111C44.06 62.9561 44.1211 63.0061 44.1774 63.0609C44.2329 63.1172 44.2831 63.1787 44.3272 63.2445C44.3708 63.3107 44.4077 63.3815 44.4384 63.454C44.469 63.5264 44.4915 63.6021 44.5076 63.6795C44.5238 63.7584 44.5303 63.8374 44.5303 63.9161C44.5303 63.9949 44.5238 64.074 44.5076 64.1514C44.4917 64.2291 44.4685 64.3051 44.4384 64.3785C44.4077 64.451 44.3705 64.5206 44.3272 64.5863C44.2831 64.6521 44.233 64.7136 44.1774 64.77C44.1211 64.8264 44.0598 64.8761 43.9939 64.9198C43.9279 64.9634 43.8585 65.0019 43.7844 65.031C43.7119 65.062 43.6363 65.0852 43.5589 65.1002C43.481 65.1162 43.4017 65.1243 43.3222 65.1243ZM19.1122 56.9829L18.5808 56.3403C18.1494 55.8186 16.7746 53.9357 17.1923 51.6077C17.5031 49.8754 18.6743 48.6449 18.8068 48.5104C18.951 48.364 19.0791 48.2507 19.2274 48.1196C19.3829 47.9821 19.5761 47.8111 19.8786 47.5222C20.2554 47.1626 20.6213 46.7919 20.9761 46.4106L22.4871 44.7853L23.0318 46.9366C23.1401 47.3641 23.2509 47.7908 23.3641 48.217C23.5596 48.9513 23.6636 49.3102 23.7256 49.5247C23.7834 49.7239 23.8182 49.8442 23.8542 50.0198C24.2946 52.1699 23.1907 54.0317 23.0634 54.2369C22.1033 55.7821 20.6702 56.452 19.9015 56.7139L19.1122 56.9829ZM21.2274 49.5699C21.0955 49.6913 20.9623 49.8112 20.8278 49.9295C20.6989 50.0435 20.614 50.1185 20.5284 50.2056C20.5224 50.2117 19.7533 51.0145 19.5703 52.0343C19.4325 52.8024 19.6679 53.5141 19.9386 54.0348C20.3095 53.7987 20.7044 53.4555 21.0108 52.9624C21.0155 52.9546 21.7403 51.7396 21.4871 50.5048C21.471 50.4265 21.4579 50.3802 21.4049 50.1967C21.3655 50.0608 21.3101 49.8694 21.2274 49.5699ZM65.001 58.9888C64.6812 58.9889 64.3704 58.883 64.1171 58.6878L56.5898 52.8347C56.1509 52.4937 55.9679 51.9382 56.1245 51.4198C56.2809 50.9014 56.7403 50.5395 57.2951 50.4982L66.8052 49.7904C67.269 49.7569 67.7328 49.9566 68.0191 50.3131C68.2897 50.6499 68.3782 51.0939 68.256 51.5012L66.2737 58.0643C66.1506 58.4717 65.8311 58.7935 65.4189 58.9246C65.2837 58.9673 65.1427 58.9889 65.001 58.9887V58.9888ZM60.345 52.694L64.4159 55.8593L65.4875 52.3114L60.345 52.694ZM21.3989 29.1506C21.2161 29.1509 21.0357 29.1096 20.8712 29.0299C20.7068 28.9502 20.5626 28.8342 20.4496 28.6906C20.0611 28.1983 19.6361 27.7361 19.178 27.3078C18.8144 26.9683 18.4309 26.6508 18.0294 26.357C17.9002 26.2638 17.7907 26.146 17.7072 26.0103C17.6237 25.8746 17.5679 25.7237 17.543 25.5664C17.518 25.409 17.5245 25.2483 17.5619 25.0934C17.5993 24.9385 17.667 24.7926 17.7611 24.664C17.8551 24.5354 17.9737 24.4267 18.11 24.3441C18.2462 24.2615 18.3975 24.2067 18.555 24.1828C18.7125 24.159 18.8732 24.1665 19.0278 24.2049C19.1824 24.2434 19.3279 24.3121 19.4558 24.407C19.9354 24.7578 20.3934 25.1369 20.8276 25.5424C21.3748 26.0541 21.8826 26.6064 22.3467 27.1945C22.4873 27.3725 22.5749 27.5865 22.5995 27.812C22.624 28.0375 22.5846 28.2654 22.4857 28.4695C22.3869 28.6737 22.2325 28.8458 22.0403 28.9663C21.8481 29.0868 21.6259 29.1507 21.3991 29.1508L21.3989 29.1506Z" fill="#F2F2F2"/>
<path d="M17.1258 28.3557C16.8507 28.3553 16.584 28.2611 16.3696 28.0886C16.1553 27.9161 16.0063 27.6757 15.9471 27.407C15.8267 26.8602 15.6464 25.4458 16.5685 24.1235C17.4648 22.8383 19.0937 22.1694 20.7183 22.4187C21.032 22.4708 21.3125 22.6443 21.499 22.9018C21.6856 23.1593 21.7631 23.4799 21.7148 23.7942C21.6665 24.1084 21.4963 24.391 21.241 24.5806C20.9858 24.7702 20.6661 24.8515 20.3513 24.8069C19.6312 24.6959 18.9238 24.9703 18.5503 25.5056C18.1541 26.0737 18.2779 26.7563 18.3068 26.8875C18.3457 27.064 18.3445 27.2471 18.3033 27.4232C18.262 27.5993 18.1818 27.7638 18.0684 27.9047C17.9551 28.0456 17.8115 28.1593 17.6484 28.2373C17.4852 28.3153 17.3067 28.3559 17.1258 28.3557ZM25.8541 35.9909C25.5493 35.9898 25.2562 35.8735 25.0335 35.6655C24.8108 35.4574 24.6749 35.1728 24.6532 34.8688C24.6314 34.5648 24.7253 34.2638 24.9161 34.0261C25.1069 33.7884 25.3804 33.6316 25.6819 33.5871C26.3025 33.4968 26.9154 33.3598 27.5154 33.1773C27.9912 33.0322 28.4579 32.8587 28.9129 32.6579C29.0582 32.5932 29.2148 32.5577 29.3737 32.5536C29.5327 32.5495 29.6909 32.5768 29.8392 32.634C29.9876 32.6912 30.1232 32.7771 30.2383 32.8868C30.3534 32.9965 30.4457 33.1278 30.51 33.2733C30.5742 33.4188 30.6091 33.5755 30.6126 33.7344C30.6161 33.8934 30.5882 34.0515 30.5305 34.1997C30.4728 34.3478 30.3864 34.4831 30.2763 34.5979C30.1662 34.7126 30.0345 34.8044 29.8888 34.8681C29.3453 35.108 28.7879 35.3152 28.2196 35.4885C27.5029 35.7066 26.7707 35.8703 26.0293 35.9781C25.9713 35.9866 25.9128 35.9908 25.8541 35.9909Z" fill="#F2F2F2"/>
<path d="M30.036 37.4079C29.8084 37.4078 29.5854 37.3434 29.3928 37.2221C29.2002 37.1007 29.0458 36.9275 28.9473 36.7222C28.8489 36.5169 28.8105 36.288 28.8365 36.0619C28.8625 35.8357 28.9519 35.6215 29.0943 35.444C29.5507 34.875 29.6666 34.1255 29.3897 33.5346C29.0958 32.9074 28.4428 32.6735 28.3151 32.633C28.1638 32.5851 28.0235 32.5079 27.9021 32.4057C27.7807 32.3036 27.6806 32.1786 27.6075 32.0378C27.4599 31.7534 27.4314 31.422 27.5281 31.1165C27.6248 30.8111 27.839 30.5566 28.1233 30.409C28.4077 30.2614 28.7391 30.2328 29.0446 30.3296C29.5782 30.4987 30.8934 31.0495 31.5777 32.5095C32.2425 33.9284 32.0074 35.6735 30.9792 36.9556C30.866 37.097 30.7224 37.2111 30.5592 37.2893C30.3959 37.3676 30.2171 37.4082 30.036 37.4079ZM47.8244 18.4719C46.4725 18.4719 45.0992 17.7865 44.0314 16.5717C42.9853 15.3816 42.4586 13.9347 42.6569 12.7953C42.8063 11.9357 43.2731 11.3424 43.3651 11.2321C44.024 10.4431 44.9339 10.1528 45.4196 10.0499C45.8303 9.91013 46.2891 9.97902 46.6326 10.2551L51.7185 14.3544C52.2401 14.7757 52.3468 15.5352 51.9611 16.0836C51.5881 16.6168 50.1948 18.3722 47.9977 18.468C47.94 18.4706 47.8822 18.4719 47.8244 18.4719ZM45.2279 12.771C45.1822 12.8326 45.0713 13.0134 45.0371 13.2094C44.9862 13.503 45.2033 14.2454 45.8461 14.9765C46.4648 15.6802 47.2305 16.0824 47.8924 16.0544C48.4354 16.0306 48.9025 15.7705 49.2611 15.4771L45.5911 12.5191C45.4533 12.5802 45.3211 12.6637 45.2279 12.771ZM39.4547 28.0712C38.6761 28.0712 38.0228 27.7921 37.6657 27.6001C37.2609 27.4413 36.9545 27.091 36.8714 26.6568L35.6379 20.2446C35.5126 19.5879 35.9204 18.9398 36.5663 18.7691C37.1988 18.6021 39.3965 18.1621 41.1355 19.5085C42.2493 20.3706 42.9065 21.8323 42.9381 23.5184C42.9678 25.1024 42.4351 26.5472 41.5477 27.2889C40.8785 27.8485 40.1392 27.9999 39.9975 28.0246C39.8117 28.057 39.63 28.0711 39.4547 28.0712ZM39.1295 25.6041C39.2743 25.6464 39.429 25.6678 39.5695 25.6464C39.6442 25.6289 39.8456 25.5626 39.9981 25.435C40.2269 25.2439 40.5407 24.5369 40.5224 23.5636C40.5047 22.6268 40.181 21.825 39.6564 21.4189C39.2304 21.0892 38.7022 20.9882 38.2397 20.9796L39.1294 25.6039L39.1295 25.6041ZM22.915 11.2848L25.0074 10.0768L60.083 70.8279L57.9908 72.0359L22.915 11.2848Z" fill="#F2F2F2"/>
<path d="M22.915 70.8301L57.9908 10.079L60.0832 11.287L25.0072 72.0381L22.915 70.8301Z" fill="#F2F2F2"/>
<path d="M6.4248 39.8496H76.5763V42.2658H6.4248V39.8496Z" fill="#F2F2F2"/>
<path d="M41.5 81.9133C36.8013 81.9133 32.5929 81.8097 28.6728 80.5368C24.4083 79.1521 20.7296 76.475 17.4841 74.1129C14.2376 71.7502 10.558 69.0724 7.92391 65.4529C5.27034 61.8069 3.80844 57.304 2.63363 53.686C1.33886 49.6984 0 45.5752 0 41.0577C0 36.5402 1.33886 32.4169 2.63363 28.4294C3.80844 24.8114 5.27034 20.3087 7.92391 16.6625C10.5582 13.0427 14.2377 10.365 17.4841 8.00244C20.7297 5.64035 24.4085 2.96311 28.6728 1.57837C32.5932 0.305492 36.8014 0.201904 41.5 0.201904C46.1986 0.201904 50.4071 0.305492 54.3272 1.57837C58.5918 2.96311 62.2706 5.64019 65.516 8.00228C68.7626 10.365 72.4421 13.0431 75.0763 16.6623C77.7297 20.3085 79.1916 24.8112 80.3664 28.4292C81.6611 32.4168 83 36.54 83 41.0575C83 45.575 81.6611 49.6983 80.3664 53.6858C79.1916 57.3038 77.7297 61.8065 75.0763 65.4527C72.442 69.0723 68.7624 71.7502 65.516 74.1127C62.2704 76.4748 58.5917 79.1521 54.3274 80.5368C50.4068 81.8097 46.1986 81.9133 41.5 81.9133ZM41.5 2.61814C36.8509 2.61814 33.009 2.71087 29.419 3.87644C25.5197 5.14251 22.1574 7.58955 18.9058 9.95602C15.8039 12.2136 12.2877 14.7723 9.87765 18.0842C7.62871 21.1743 6.35858 24.7812 4.93185 29.1754C3.69512 32.9841 2.41624 36.9224 2.41624 41.0575C2.41624 45.1926 3.69512 49.1309 4.93185 52.9396C6.35858 57.3339 7.62871 60.9409 9.87765 64.031C12.2877 67.3427 15.8037 69.9015 18.9058 72.1592C22.1574 74.5255 25.5196 76.9725 29.419 78.2386C33.0089 79.4043 36.8507 79.4969 41.5 79.4969C46.1493 79.4969 49.991 79.4042 53.5812 78.2386C57.4804 76.9725 60.8427 74.5255 64.0943 72.159C67.1963 69.9015 70.7124 67.3426 73.1225 64.0308C75.3713 60.9407 76.6414 57.3338 78.0681 52.9396C79.3049 49.1309 80.5838 45.1926 80.5838 41.0575C80.5838 36.9224 79.3049 32.9841 78.0681 29.1754C76.6416 24.7811 75.3713 21.1742 73.1225 18.084C70.7126 14.7726 67.1964 12.2136 64.0943 9.95586C60.8427 7.58955 57.4806 5.14251 53.581 3.87644C49.9911 2.71071 46.1493 2.61814 41.5 2.61814Z" fill="#F2F2F2"/>
<path d="M47.0185 77.2707C45.9635 77.2707 44.9438 76.9604 43.9507 76.6584C43.0727 76.3912 42.2435 76.139 41.4998 76.139C40.756 76.139 39.9268 76.3912 39.049 76.6584C37.7909 77.041 36.4908 77.4368 35.129 77.1984C33.7205 76.9517 32.5646 76.0824 31.5451 75.3155C30.832 74.7792 30.1584 74.2726 29.4982 74.0322C28.8142 73.7832 27.9581 73.7364 27.0519 73.6868C25.7293 73.6143 24.3616 73.5394 23.1498 72.8383C21.9257 72.13 21.1421 70.9241 20.4507 69.86C19.96 69.1049 19.4967 68.3918 18.9496 67.9322C18.3989 67.4697 17.6141 67.1353 16.783 66.7812C15.5611 66.2607 14.2975 65.7223 13.3916 64.6437C12.4882 63.5682 12.1766 62.2326 11.8753 60.9408C11.6695 60.0592 11.4752 59.2264 11.1132 58.6007C10.7582 57.9868 10.1389 57.4092 9.48301 56.7977C8.55251 55.9298 7.49782 54.946 7.01149 53.6102C6.53505 52.3013 6.6996 50.9449 6.85879 49.6333C6.96854 48.7286 7.07245 47.8739 6.94568 47.1504C6.82572 46.465 6.44541 45.7169 6.04273 44.9248C5.46384 43.7857 4.80762 42.4947 4.80762 41.0576C4.80762 39.6205 5.46384 38.3294 6.04273 37.1903C6.44541 36.3982 6.82555 35.6501 6.94568 34.9647C7.07245 34.241 6.9687 33.3864 6.85879 32.4816C6.6996 31.17 6.53505 29.8136 7.01149 28.5048C7.49782 27.169 8.55267 26.1852 9.48301 25.3172C10.1386 24.7056 10.7582 24.128 11.1132 23.5141C11.4755 22.8882 11.6697 22.0553 11.8754 21.1737C12.1768 19.882 12.4885 18.5466 13.3916 17.4711C14.2977 16.3925 15.5613 15.8541 16.7833 15.3336C17.6141 14.9795 18.399 14.6452 18.9497 14.1827C19.4968 13.7232 19.9603 13.01 20.4508 12.2549C21.1424 11.1908 21.9259 9.98476 23.15 9.27666C24.3617 8.5757 25.7293 8.50081 27.0519 8.42834C27.9581 8.37874 28.8142 8.33189 29.4983 8.08289C30.1586 7.84248 30.8322 7.33589 31.5451 6.79963C32.565 6.03269 33.7206 5.16346 35.129 4.91673C36.4899 4.67811 37.791 5.07414 39.049 5.45672C39.927 5.72387 40.756 5.97612 41.4998 5.97612C42.2435 5.97612 43.0729 5.72387 43.9507 5.45672C45.2088 5.07398 46.5096 4.67843 47.8705 4.91673C49.2791 5.16346 50.4349 6.03269 51.4546 6.79979C52.1677 7.33605 52.8413 7.84248 53.5014 8.08305C54.1853 8.33205 55.0414 8.3789 55.9478 8.42851C57.2704 8.50097 58.6381 8.57586 59.8499 9.27699C61.0738 9.98524 61.8576 11.1913 62.5489 12.2553C63.0396 13.0104 63.5029 13.7235 64.0502 14.1832C64.6007 14.6456 65.3855 14.98 66.2166 15.3342C67.4386 15.8547 68.7021 16.3931 69.6081 17.4718C70.5114 18.547 70.8229 19.8827 71.1243 21.1744C71.33 22.0561 71.5244 22.8888 71.8864 23.5147C72.2416 24.1286 72.8608 24.7062 73.5167 25.3179C74.4472 26.1858 75.5019 27.1695 75.9881 28.5053C76.4645 29.8143 76.3 31.1705 76.1408 32.4821C76.031 33.3869 75.9271 34.2415 76.0539 34.9652C76.1738 35.6506 76.5541 36.3987 76.9568 37.1908C77.5357 38.3299 78.1919 39.6209 78.1919 41.058C78.1919 42.4951 77.5357 43.7862 76.9568 44.9253C76.5541 45.7174 76.174 46.4655 76.0539 47.1509C75.9271 47.8746 76.0309 48.7292 76.1408 49.634C76.3 50.9456 76.4645 52.302 75.9881 53.6108C75.5017 54.9468 74.4469 55.9304 73.5165 56.7984C72.8608 57.41 72.2416 57.9876 71.8862 58.6015C71.5242 59.2273 71.33 60.06 71.1243 60.9416C70.8229 62.2334 70.5112 63.569 69.6079 64.6445C68.7019 65.723 67.4384 66.2613 66.2163 66.782C65.3855 67.1361 64.6005 67.4705 64.0498 67.9329C63.5029 68.3924 63.0394 69.1056 62.5489 69.8605C61.8575 70.9246 61.0738 72.1307 59.8498 72.8389C58.638 73.5399 57.2704 73.6148 55.9478 73.6873C55.0414 73.7369 54.1853 73.7837 53.5014 74.0327C52.841 74.2731 52.1674 74.7797 51.4544 75.316C50.4348 76.0829 49.2789 76.9521 47.8705 77.1989C47.5839 77.2491 47.2999 77.2712 47.0185 77.2712V77.2707ZM35.9756 7.26148C35.8272 7.26148 35.6838 7.27251 35.5458 7.29666C34.709 7.44321 33.8776 8.06862 32.9973 8.73068C32.1741 9.34961 31.323 9.98978 30.3246 10.3532C29.3038 10.7248 28.2263 10.7838 27.1839 10.8409C26.0973 10.9004 25.071 10.9566 24.3598 11.368C23.6365 11.7866 23.0733 12.6536 22.4767 13.5714C21.9113 14.4416 21.3264 15.3417 20.5035 16.0331C19.6773 16.727 18.6873 17.1487 17.7302 17.5566C16.7252 17.9847 15.7761 18.3892 15.2418 19.0254C14.7101 19.6583 14.476 20.6611 14.2283 21.7229C13.9916 22.7379 13.7467 23.7874 13.2044 24.7244C12.6691 25.6497 11.8871 26.379 11.131 27.0844C10.3281 27.8332 9.56974 28.5406 9.282 29.3314C9.00333 30.0969 9.1267 31.1139 9.25752 32.1907C9.38364 33.2304 9.51414 34.3054 9.32561 35.3816C9.14307 36.423 8.66193 37.3697 8.19668 38.2852C7.69624 39.2695 7.2237 40.1993 7.2237 41.0576C7.2237 41.9158 7.69624 42.8456 8.19668 43.8299C8.66193 44.7454 9.14323 45.6921 9.32561 46.7335C9.51398 47.8097 9.38364 48.8847 9.25752 49.9244C9.12686 51.0012 9.00333 52.0183 9.282 52.7837C9.5699 53.5747 10.3283 54.2821 11.131 55.0309C11.8871 55.7362 12.6691 56.4656 13.2046 57.3909C13.7465 58.3277 13.9914 59.3772 14.2281 60.3919C14.4758 61.4537 14.7099 62.4566 15.2418 63.0897C15.7761 63.726 16.7251 64.1304 17.73 64.5586C18.6873 64.9664 19.6771 65.3881 20.5034 66.0822C21.3262 66.7734 21.9111 67.6735 22.4766 68.5437C23.0731 69.4615 23.6363 70.3287 24.3596 70.7471C25.0708 71.1585 26.0971 71.2148 27.1837 71.2743C28.2261 71.3313 29.3038 71.3903 30.3244 71.7619C31.323 72.1253 32.1741 72.7655 32.9971 73.3846C33.8774 74.0467 34.7089 74.6719 35.5458 74.8185C36.3389 74.9572 37.3136 74.6607 38.3458 74.3469C39.3541 74.0402 40.3966 73.7229 41.4998 73.7229C42.6029 73.7229 43.6456 74.0402 44.6539 74.3469C45.6859 74.6609 46.6607 74.9579 47.4536 74.8185C48.2904 74.6719 49.122 74.0465 50.0023 73.3846C50.8253 72.7655 51.6764 72.1253 52.675 71.7619C53.6956 71.3903 54.7733 71.3313 55.8157 71.2743C56.9021 71.2148 57.9286 71.1585 58.6398 70.7471C59.3631 70.3285 59.9264 69.4615 60.5228 68.5435C61.0883 67.6733 61.673 66.7733 62.4959 66.0821C63.3221 65.3881 64.3121 64.9663 65.2692 64.5586C66.2741 64.1304 67.2233 63.726 67.7576 63.0898C68.2895 62.4568 68.5236 61.4538 68.7713 60.392C69.008 59.3772 69.2529 58.3279 69.7948 57.391C70.3303 56.4657 71.1123 55.7364 71.8684 55.0311C72.6713 54.2821 73.4296 53.5747 73.7174 52.7839C73.9961 52.0184 73.8727 51.0013 73.7419 49.9246C73.6158 48.8848 73.4853 47.8099 73.6738 46.7337C73.8563 45.6923 74.3375 44.7455 74.8027 43.8301C75.3031 42.8458 75.7757 41.9159 75.7757 41.0577C75.7757 40.1995 75.3031 39.2696 74.8027 38.2853C74.3375 37.3699 73.8562 36.4232 73.6738 35.3818C73.4854 34.3055 73.6158 33.2304 73.742 32.1907C73.8727 31.1139 73.9961 30.097 73.7176 29.3314C73.4296 28.5406 72.6713 27.8332 71.8685 27.0844C71.1125 26.379 70.3304 25.6497 69.795 24.7244C69.2529 23.7876 69.008 22.7379 68.7713 21.7231C68.5236 20.6613 68.2895 19.6585 67.7578 19.0254C67.2235 18.3892 66.2743 17.9849 65.2696 17.5567C64.3121 17.1489 63.3223 16.7272 62.496 16.0331C61.6732 15.3418 61.0884 14.442 60.523 13.5716C59.9264 12.6536 59.3631 11.7864 58.6399 11.368C57.9288 10.9566 56.9024 10.9004 55.8157 10.8409C54.7733 10.7838 53.6958 10.7248 52.675 10.3532C51.6765 9.98978 50.8254 9.34977 50.0024 8.73068C49.122 8.06862 48.2905 7.44321 47.4536 7.29666C46.6605 7.15806 45.6859 7.45439 44.6539 7.76824C43.6455 8.07495 42.6029 8.39219 41.4998 8.39219C40.3966 8.39219 39.3541 8.07495 38.3458 7.76824C37.4932 7.50886 36.6798 7.26148 35.9756 7.26148Z" fill="#F2F2F2"/>
<path d="M33.5037 18.473C33.4242 18.4729 33.345 18.4648 33.2671 18.4488C33.1123 18.4172 32.9652 18.356 32.8338 18.2684C32.7673 18.2253 32.7058 18.1751 32.6502 18.1186C32.5941 18.0623 32.5434 18.0008 32.4988 17.9349C32.4112 17.8031 32.3505 17.6553 32.32 17.5C32.2881 17.3443 32.2881 17.1837 32.32 17.0279C32.3508 16.8727 32.4115 16.725 32.4988 16.593C32.5439 16.527 32.5938 16.4657 32.6502 16.4095C32.7628 16.2982 32.8956 16.2096 33.0416 16.1485C33.1144 16.1184 33.1899 16.0952 33.2671 16.0793C33.4234 16.0486 33.5842 16.0486 33.7406 16.0793C33.8953 16.1108 34.0425 16.1721 34.1739 16.2597C34.2403 16.3029 34.3018 16.3531 34.3574 16.4095C34.4137 16.4659 34.4638 16.527 34.5088 16.593C34.5523 16.6591 34.5894 16.7284 34.6199 16.8024C34.6491 16.8749 34.673 16.9506 34.6875 17.0279C34.7198 17.1836 34.7198 17.3443 34.6875 17.5C34.6571 17.6553 34.5964 17.8031 34.5088 17.9349C34.4642 18.0007 34.4135 18.0622 34.3574 18.1186C34.3022 18.1754 34.2406 18.2257 34.1739 18.2684C34.1094 18.3118 34.0385 18.349 33.9661 18.3796C33.8196 18.4408 33.6626 18.4725 33.5039 18.473H33.5037ZM47.4032 23.1474C47.3242 23.1474 47.2453 23.1393 47.1679 23.1233C47.0906 23.1072 47.0149 23.0847 46.9408 23.054C46.7947 22.9932 46.6618 22.9045 46.5495 22.793C46.4934 22.7367 46.4427 22.6752 46.3981 22.6094C46.3105 22.4775 46.2497 22.3297 46.2193 22.1744C46.1873 22.0187 46.1873 21.8581 46.2193 21.7024C46.2339 21.625 46.258 21.5493 46.287 21.4769C46.3176 21.4038 46.3548 21.3337 46.3981 21.2674C46.4432 21.2014 46.4931 21.1402 46.5495 21.0839C46.662 20.9726 46.7949 20.884 46.9408 20.8229C47.0142 20.7928 47.0902 20.7696 47.1679 20.7537C47.3238 20.7231 47.484 20.7231 47.6399 20.7537C47.7946 20.7853 47.9418 20.8465 48.0732 20.9341C48.1395 20.9773 48.2011 21.0276 48.2567 21.0839C48.3129 21.1402 48.363 21.2014 48.4081 21.2674C48.4515 21.3336 48.4887 21.4044 48.5191 21.4769C48.5481 21.5493 48.5723 21.625 48.5867 21.7024C48.619 21.8581 48.619 22.0187 48.5867 22.1744C48.5715 22.2516 48.5489 22.3271 48.5191 22.3999C48.4889 22.4731 48.4517 22.5433 48.4081 22.6094C48.3634 22.6752 48.3128 22.7367 48.2567 22.793C48.201 22.8494 48.1395 22.8996 48.0732 22.9428C48.0086 22.9863 47.9378 23.0234 47.8653 23.054C47.7189 23.1152 47.5619 23.1469 47.4032 23.1474ZM60.5472 34.6823C60.4682 34.6823 60.3894 34.6742 60.3119 34.6598C60.2342 34.6441 60.1581 34.6209 60.0848 34.5905C59.9388 34.5296 59.8059 34.4409 59.6935 34.3296C59.6374 34.2732 59.5867 34.2117 59.5421 34.1459C59.4987 34.0799 59.462 34.0097 59.4327 33.9364C59.4017 33.8639 59.3785 33.7883 59.3634 33.7109C59.3315 33.5553 59.3315 33.3947 59.3634 33.239C59.3779 33.1617 59.4022 33.086 59.4327 33.0119C59.4617 32.9395 59.4988 32.8702 59.5421 32.8041C59.5871 32.738 59.6372 32.6752 59.6935 32.6204C59.7492 32.5642 59.8107 32.5139 59.877 32.4706C59.9415 32.4272 60.0124 32.3901 60.0848 32.3594C60.1573 32.3288 60.2348 32.3063 60.3119 32.2902C60.4676 32.258 60.6283 32.258 60.784 32.2902C60.9387 32.322 61.0858 32.3832 61.2173 32.4706C61.2838 32.5137 61.3453 32.5639 61.4008 32.6204C61.4572 32.6752 61.5072 32.738 61.5522 32.8041C61.5957 32.8702 61.6328 32.9395 61.6634 33.0119C61.7225 33.159 61.7536 33.3158 61.755 33.4743C61.755 33.5532 61.7471 33.6322 61.731 33.7109C61.7165 33.7883 61.6923 33.864 61.6634 33.9364C61.6328 34.0095 61.5955 34.0796 61.5522 34.1459C61.5076 34.2117 61.457 34.2732 61.4008 34.3296C61.2883 34.4408 61.1555 34.5294 61.0095 34.5905C60.9368 34.6209 60.8612 34.6441 60.784 34.6598C60.7059 34.6744 60.6266 34.682 60.5472 34.6823ZM56.4106 28.7386C56.3312 28.7382 56.252 28.7307 56.1739 28.716C56.0966 28.7 56.0209 28.6773 55.9484 28.6468C55.876 28.6163 55.8051 28.5792 55.739 28.5356C55.6729 28.492 55.6117 28.4406 55.5553 28.3858C55.3315 28.1603 55.2026 27.8494 55.2026 27.5305C55.2026 27.2117 55.3315 26.9022 55.5553 26.6767C55.6117 26.6203 55.673 26.5705 55.739 26.5269C55.805 26.4833 55.8758 26.4463 55.9484 26.4157C56.0212 26.3854 56.0967 26.3622 56.1739 26.3465C56.5669 26.2675 56.984 26.3964 57.2643 26.6767C57.3207 26.7331 57.3706 26.7942 57.4141 26.8604C57.4577 26.9265 57.4963 26.9957 57.5253 27.0698C57.5862 27.2158 57.6179 27.3723 57.6187 27.5305C57.6182 27.6892 57.5864 27.8463 57.5253 27.9927C57.4957 28.0662 57.4584 28.1364 57.4141 28.2021C57.3706 28.2683 57.3204 28.3299 57.2643 28.3858C57.1518 28.4971 57.0189 28.5857 56.873 28.6468C56.7996 28.6769 56.7235 28.7001 56.6458 28.716C56.5683 28.7307 56.4895 28.7383 56.4106 28.7386ZM64.7062 27.8703C64.3861 27.8695 64.0792 27.7421 63.8526 27.5159C63.6833 27.348 63.5683 27.1331 63.5225 26.8991C63.4906 26.7434 63.4906 26.5829 63.5225 26.4272C63.5376 26.3495 63.5603 26.2734 63.5901 26.2001C63.6505 26.0534 63.7398 25.9203 63.8526 25.8088C64.0764 25.5833 64.389 25.4544 64.7062 25.4544C65.0235 25.4544 65.336 25.5833 65.5599 25.8088C65.6163 25.8636 65.6662 25.9263 65.7113 25.9923C65.7548 26.0566 65.7919 26.1276 65.8207 26.2001C65.8514 26.2726 65.8755 26.3499 65.89 26.4272C65.922 26.5829 65.922 26.7434 65.89 26.8991C65.8748 26.9765 65.8516 27.0521 65.8207 27.1246C65.7916 27.1975 65.7549 27.2671 65.7113 27.3324C65.6671 27.3985 65.6164 27.46 65.5599 27.5159C65.3333 27.7421 65.0264 27.8695 64.7062 27.8703ZM42.3356 53.9779C42.2583 53.9779 42.1777 53.9698 42.1004 53.9537C42.0231 53.9377 41.9474 53.915 41.8733 53.8845C41.8008 53.8555 41.7316 53.8169 41.6655 53.7733C41.5993 53.7297 41.5382 53.6799 41.482 53.6235C41.4255 53.5679 41.3752 53.5063 41.332 53.4398C41.2887 53.3741 41.2516 53.3046 41.221 53.2322C41.1909 53.1588 41.1676 53.0827 41.1516 53.005C41.1355 52.9277 41.1276 52.8488 41.1276 52.7698C41.1276 52.6909 41.1355 52.6119 41.1516 52.533C41.1678 52.4557 41.1903 52.3799 41.221 52.3075C41.2515 52.2344 41.2887 52.1643 41.332 52.098C41.3756 52.0319 41.4254 51.9708 41.482 51.9144C41.5387 51.8592 41.6001 51.8091 41.6655 51.7646C41.7312 51.7213 41.8008 51.6841 41.8733 51.6534C41.9467 51.6237 42.0227 51.6011 42.1004 51.5858C42.2561 51.5535 42.4167 51.5535 42.5723 51.5858C42.7276 51.6162 42.8754 51.677 43.0072 51.7646C43.0726 51.8091 43.134 51.8592 43.1908 51.9144C43.2456 51.9708 43.2971 52.0319 43.3407 52.098C43.3842 52.164 43.4213 52.2349 43.4518 52.3075C43.5129 52.454 43.5447 52.6111 43.5451 52.7698C43.5451 52.8488 43.5372 52.9277 43.521 53.005C43.5051 53.0827 43.4819 53.1588 43.4518 53.2322C43.4212 53.3046 43.384 53.3742 43.3407 53.4398C43.253 53.5722 43.1396 53.6856 43.0072 53.7733C42.9415 53.8175 42.8713 53.8548 42.7978 53.8845C42.6514 53.9456 42.4943 53.9774 42.3356 53.9779ZM33.2572 69.7843C33.1782 69.7843 33.0977 69.7764 33.0205 69.7618C32.9428 69.7459 32.8668 69.7227 32.7934 69.6926C32.7209 69.6619 32.6517 69.6248 32.5856 69.5814C32.5194 69.5379 32.4583 69.4862 32.4021 69.4316C32.3464 69.3752 32.2962 69.3137 32.2521 69.2479C32.2088 69.1816 32.1716 69.1115 32.1411 69.0385C32.0799 68.892 32.0482 68.7349 32.0477 68.5761C32.0477 68.4972 32.0556 68.4182 32.0718 68.3409C32.0879 68.2636 32.1104 68.1879 32.1411 68.1138C32.1715 68.0413 32.2087 67.9721 32.2521 67.906C32.2957 67.84 32.3473 67.7787 32.4021 67.7225C32.4583 67.666 32.5196 67.6161 32.5856 67.5727C32.6515 67.5292 32.7209 67.4921 32.7934 67.4615C32.8668 67.4313 32.9428 67.4081 33.0205 67.3922C33.1763 67.3616 33.3366 67.3616 33.4924 67.3922C33.6476 67.424 33.7952 67.4853 33.9273 67.5727C33.9935 67.6163 34.0546 67.666 34.1109 67.7225C34.1658 67.7787 34.2172 67.84 34.2608 67.906C34.3043 67.9721 34.3414 68.0413 34.3718 68.1138C34.4025 68.1879 34.425 68.2636 34.4412 68.3409C34.4732 68.4966 34.4732 68.6572 34.4412 68.813C34.425 68.8903 34.4025 68.966 34.3718 69.0385C34.3413 69.1115 34.3041 69.1816 34.2608 69.2479C34.2167 69.3137 34.1665 69.3752 34.1109 69.4316C34.0545 69.4872 33.9931 69.5373 33.9273 69.5814C33.7951 69.6685 33.6475 69.7298 33.4924 69.7618C33.4152 69.7764 33.3347 69.7843 33.2572 69.7843ZM28.6794 52.2028C28.6004 52.2028 28.5216 52.1947 28.4427 52.1786C28.3655 52.1634 28.29 52.1407 28.2172 52.1108C28.1442 52.0802 28.074 52.043 28.0078 51.9996C27.9419 51.9551 27.8805 51.9044 27.8243 51.8482C27.7127 51.7359 27.6241 51.603 27.5633 51.4569C27.5333 51.3836 27.5107 51.3075 27.4957 51.2298C27.4795 51.1524 27.4714 51.0736 27.4715 50.9946C27.4715 50.6772 27.6004 50.3648 27.8243 50.1407C27.8806 50.0847 27.942 50.034 28.0078 49.9893C28.0737 49.9459 28.1439 49.9092 28.2172 49.8799C28.2897 49.8488 28.3653 49.8256 28.4427 49.8107C28.5983 49.7784 28.759 49.7784 28.9146 49.8107C28.9919 49.8251 29.0676 49.8494 29.1417 49.8799C29.2142 49.9089 29.2834 49.9459 29.3495 49.9893C29.4157 50.0344 29.4784 50.0845 29.533 50.1407C29.7593 50.3674 29.8867 50.6743 29.8874 50.9946C29.8874 51.0735 29.8795 51.1525 29.8633 51.2298C29.8483 51.3077 29.8251 51.3839 29.794 51.4569C29.7644 51.5298 29.7272 51.5994 29.683 51.6646C29.6398 51.731 29.5896 51.7926 29.533 51.8482C29.4771 51.9047 29.4156 51.9554 29.3495 51.9996C29.2838 52.0429 29.2142 52.0801 29.1417 52.1108C28.9947 52.17 28.8379 52.2012 28.6794 52.2028ZM60.5472 21.4143C60.4682 21.4143 60.3894 21.4064 60.3119 21.3901C60.2342 21.3744 60.1581 21.3512 60.0848 21.3209C59.9388 21.2599 59.8059 21.1713 59.6935 21.0599C59.6374 21.0036 59.5867 20.9422 59.5421 20.8764C59.4983 20.8106 59.4617 20.7404 59.4327 20.667C59.4016 20.5945 59.3784 20.5189 59.3634 20.4415C59.3312 20.2858 59.3312 20.1252 59.3634 19.9696C59.3779 19.8923 59.4022 19.8165 59.4327 19.7441C59.4617 19.67 59.4988 19.6008 59.5421 19.5346C59.5867 19.4688 59.6374 19.4073 59.6935 19.351C59.7491 19.2946 59.8107 19.2444 59.877 19.2012C59.9415 19.1577 60.0124 19.1206 60.0848 19.09C60.1573 19.0593 60.2348 19.037 60.3119 19.0208C60.4678 18.9901 60.6281 18.9901 60.784 19.0208C60.9388 19.0522 61.086 19.1135 61.2173 19.2012C61.2838 19.2443 61.3453 19.2945 61.4008 19.351C61.4572 19.4074 61.5072 19.4685 61.5522 19.5346C61.5957 19.6008 61.6328 19.67 61.6634 19.7441C61.6925 19.8165 61.7165 19.8923 61.731 19.9696C61.7631 20.1252 61.7631 20.2858 61.731 20.4415C61.7165 20.5188 61.6923 20.5945 61.6634 20.667C61.6331 20.7402 61.5959 20.8103 61.5522 20.8764C61.5076 20.9422 61.4569 21.0036 61.4008 21.0599C61.2883 21.1712 61.1555 21.2598 61.0095 21.3209C60.863 21.3821 60.7059 21.4138 60.5472 21.4143ZM14.126 48.7364C14.047 48.7363 13.9682 48.7282 13.8908 48.7122C13.8134 48.6972 13.7378 48.674 13.6653 48.643C13.5912 48.614 13.522 48.5754 13.4558 48.5318C13.3232 48.4445 13.2097 48.3311 13.1224 48.1985C13.0791 48.1328 13.0419 48.0632 13.0113 47.9907C12.9812 47.9173 12.958 47.8413 12.942 47.7636C12.9259 47.6862 12.918 47.6073 12.918 47.5283C12.918 47.4494 12.9259 47.3704 12.942 47.2915C12.9582 47.2142 12.9807 47.1385 13.0113 47.066C13.0419 46.993 13.0791 46.9228 13.1224 46.8566C13.1661 46.791 13.2163 46.73 13.2722 46.6745C13.3286 46.6185 13.3901 46.5678 13.4558 46.5231C13.522 46.4795 13.5921 46.4422 13.6653 46.4119C13.7383 46.3823 13.8137 46.3591 13.8908 46.3427C14.0466 46.312 14.2069 46.312 14.3627 46.3427C14.5179 46.3744 14.6655 46.4357 14.7976 46.5231C14.8638 46.5682 14.9249 46.6183 14.9811 46.6745C15.0359 46.7293 15.0875 46.7906 15.1309 46.8566C15.1745 46.9225 15.2115 46.9934 15.2421 47.066C15.3032 47.2125 15.3349 47.3696 15.3355 47.5283C15.3355 47.6073 15.3276 47.6862 15.3114 47.7636C15.2955 47.8413 15.2723 47.9173 15.2421 47.9907C15.2115 48.0632 15.1743 48.1328 15.1309 48.1985C15.0435 48.331 14.9301 48.4444 14.7976 48.5318C14.7319 48.5761 14.6617 48.6133 14.5882 48.643C14.5157 48.6741 14.4401 48.6973 14.3627 48.7122C14.2848 48.7283 14.2055 48.7364 14.126 48.7364ZM25.9605 29.1508C25.8815 29.1508 25.8026 29.1427 25.7253 29.1267C25.6474 29.1115 25.5712 29.0883 25.4981 29.0574C25.4251 29.0278 25.3555 28.9905 25.2903 28.9462C25.2239 28.9032 25.1623 28.8529 25.1068 28.7964C25.0504 28.7408 25.0001 28.6792 24.9569 28.6128C24.9129 28.5474 24.8757 28.4778 24.8458 28.4049C24.8149 28.3318 24.7917 28.2557 24.7766 28.1778C24.7446 28.0221 24.7446 27.8615 24.7766 27.7058C24.7915 27.6283 24.8147 27.5527 24.8458 27.4803C24.9364 27.259 25.0912 27.0699 25.2903 26.9375C25.3559 26.8939 25.4255 26.8567 25.4981 26.8263C25.5715 26.7962 25.6475 26.773 25.7253 26.7571C25.8811 26.7265 26.0414 26.7265 26.1972 26.7571C26.2745 26.7731 26.3502 26.7958 26.4227 26.8263C26.4951 26.8568 26.566 26.8939 26.6321 26.9375C26.6982 26.9811 26.7594 27.0325 26.8156 27.0873C26.8706 27.1436 26.9219 27.2048 26.9656 27.2708C27.009 27.337 27.0461 27.4078 27.0766 27.4803C27.1072 27.5527 27.1298 27.6284 27.146 27.7058C27.1604 27.7847 27.1685 27.8637 27.1685 27.9426C27.1685 28.0216 27.1606 28.1005 27.146 28.1778C27.1298 28.2552 27.1072 28.3309 27.0766 28.4049C27.0461 28.4775 27.0089 28.5471 26.9656 28.6128C26.878 28.7453 26.7646 28.8587 26.6321 28.9462C26.5662 28.9902 26.496 29.0275 26.4227 29.0574C26.3502 29.0885 26.2746 29.1117 26.1972 29.1267C26.1193 29.1426 26.04 29.1507 25.9605 29.1508ZM52.6333 37.0968C52.313 37.0963 52.006 36.9688 51.7796 36.7424C51.5531 36.5159 51.4257 36.2088 51.4253 35.8886C51.4253 35.8096 51.4332 35.7307 51.4494 35.6533C51.4655 35.576 51.488 35.5003 51.5186 35.4262C51.5493 35.3538 51.5862 35.2829 51.6298 35.2184C51.6733 35.1523 51.7232 35.0895 51.7796 35.0347C51.8359 34.9783 51.8972 34.9284 51.9631 34.8849C52.0291 34.8415 52.0985 34.8027 52.171 34.7737C52.2441 34.7429 52.3202 34.7197 52.3981 34.7045C52.5537 34.6723 52.7143 34.6723 52.87 34.7045C52.9474 34.7194 53.023 34.7426 53.0955 34.7737C53.1679 34.8027 53.2388 34.8413 53.3049 34.8849C53.4376 34.9723 53.5511 35.0857 53.6384 35.2184C53.7263 35.3502 53.7876 35.498 53.8188 35.6533C53.8332 35.7307 53.8413 35.8096 53.8413 35.8886C53.8413 35.9675 53.8334 36.0465 53.8188 36.1254C53.7872 36.2801 53.726 36.4273 53.6384 36.5587C53.5951 36.6251 53.5449 36.6866 53.4886 36.7424C53.4322 36.7984 53.3707 36.8491 53.3049 36.8938C53.2386 36.9371 53.1685 36.9744 53.0955 37.005C53.0227 37.0348 52.9472 37.0575 52.87 37.0726C52.7921 37.0886 52.7128 37.0967 52.6333 37.0968ZM37.4662 58.6409C37.1455 58.6402 36.8381 58.5128 36.6109 58.2866C36.555 58.2304 36.5049 58.1689 36.4611 58.1029C36.4174 58.0374 36.3802 57.9678 36.3499 57.8951C36.3201 57.8223 36.2974 57.7468 36.2823 57.6696C36.2504 57.5138 36.2504 57.3532 36.2823 57.1975C36.2967 57.1202 36.3211 57.0445 36.3499 56.9704C36.3805 56.8979 36.4175 56.8285 36.4611 56.7626C36.5062 56.6964 36.5561 56.6337 36.6109 56.5789C36.8928 56.2986 37.3099 56.1697 37.7013 56.2487C37.7786 56.2647 37.8559 56.2873 37.9284 56.3179C38.0008 56.3469 38.0718 56.3855 38.1362 56.4291C38.2027 56.4722 38.2642 56.5224 38.3197 56.5789C38.3761 56.6337 38.426 56.6964 38.4711 56.7626C38.5147 56.8285 38.5517 56.8979 38.5823 56.9704C38.6113 57.0445 38.6355 57.1202 38.6499 57.1975C38.666 57.2748 38.6739 57.3538 38.6739 57.4327C38.6739 57.5117 38.666 57.5906 38.6499 57.6696C38.6347 57.7467 38.6121 57.8223 38.5823 57.8951C38.552 57.9678 38.5148 58.0374 38.4711 58.1029C38.4273 58.1693 38.3765 58.2309 38.3197 58.2866C38.2079 58.3991 38.0749 58.4883 37.9284 58.5492C37.855 58.579 37.779 58.6017 37.7013 58.6168C37.6239 58.6328 37.5451 58.6409 37.466 58.6409H37.4662ZM20.0697 33.7319C19.9111 33.7314 19.754 33.6996 19.6076 33.6385C19.5353 33.6078 19.4643 33.5709 19.3981 33.5273C19.332 33.4837 19.2709 33.4321 19.2146 33.3775C18.9897 33.1502 18.863 32.8436 18.8619 32.5238C18.8619 32.2049 18.9907 31.894 19.2146 31.6685C19.2709 31.6137 19.3322 31.5622 19.3981 31.5187C19.4641 31.4753 19.5351 31.4382 19.6076 31.4075C19.68 31.3769 19.7557 31.3544 19.8331 31.3383C20.2262 31.2594 20.6433 31.3882 20.9234 31.6685C20.9798 31.7249 21.0298 31.7861 21.0734 31.852C21.1168 31.9182 21.1556 31.9874 21.1844 32.0615C21.2151 32.1339 21.2394 32.2096 21.2538 32.287C21.2698 32.3643 21.2778 32.4449 21.2778 32.5238C21.2778 32.8411 21.1489 33.152 20.9234 33.3775C20.6979 33.603 20.3872 33.7319 20.0697 33.7319ZM14.126 36.0353C14.0487 36.0353 13.9681 36.0273 13.8908 36.0111C13.8134 35.9961 13.7378 35.9729 13.6653 35.9419C13.5912 35.9129 13.522 35.8743 13.4558 35.8307C13.3232 35.7434 13.2097 35.63 13.1224 35.4974C13.0345 35.3656 12.9732 35.2178 12.942 35.0625C12.9259 34.9851 12.918 34.9062 12.918 34.8272C12.918 34.7483 12.9259 34.6693 12.942 34.5904C12.9896 34.357 13.1043 34.1426 13.2722 33.9736C13.3285 33.9175 13.39 33.8668 13.4558 33.8222C13.522 33.7785 13.5921 33.7413 13.6653 33.7109C13.7381 33.6812 13.8136 33.6585 13.8908 33.6433C14.0464 33.6112 14.207 33.6112 14.3627 33.6433C14.4399 33.6579 14.5157 33.6821 14.5882 33.7109C14.6623 33.7416 14.7315 33.7787 14.7976 33.8222C14.8638 33.8672 14.9249 33.9171 14.9811 33.9736C15.1489 34.1426 15.2637 34.357 15.3114 34.5904C15.3433 34.7461 15.3433 34.9067 15.3114 35.0625C15.2955 35.1402 15.2723 35.2162 15.2421 35.2896C15.1813 35.4357 15.0926 35.5686 14.9811 35.6809C14.9249 35.7373 14.8636 35.7872 14.7976 35.8307C14.7316 35.8741 14.6623 35.9129 14.5882 35.9419C14.5157 35.973 14.4401 35.9962 14.3627 36.0111C14.2848 36.0272 14.2055 36.0353 14.126 36.0353ZM23.4026 21.0003C23.3236 21.0003 23.243 20.9922 23.1659 20.9761C23.0887 20.9609 23.0132 20.9382 22.9404 20.9084C22.8672 20.8781 22.797 20.8408 22.7309 20.7971C22.6655 20.7526 22.604 20.7025 22.5473 20.6474C22.4917 20.591 22.4416 20.5295 22.3975 20.4637C22.3542 20.3974 22.317 20.3273 22.2864 20.2542C22.2248 20.108 22.1936 19.9508 22.1945 19.7921C22.1945 19.7133 22.201 19.6342 22.217 19.5568C22.2333 19.4795 22.2558 19.4038 22.2864 19.3297C22.3169 19.2573 22.354 19.1881 22.3975 19.1219C22.4411 19.0558 22.4913 18.9943 22.5473 18.9382C22.6037 18.882 22.665 18.8321 22.7309 18.7885C22.7969 18.7448 22.8663 18.7079 22.9404 18.6772C23.0131 18.6469 23.0886 18.6237 23.1659 18.608C23.5572 18.5291 23.9759 18.658 24.2562 18.9382C24.311 18.993 24.3626 19.0558 24.406 19.1219C24.4496 19.1881 24.4866 19.2573 24.5172 19.3297C24.5477 19.4038 24.5704 19.4795 24.5864 19.5568C24.6187 19.7125 24.6187 19.8731 24.5864 20.0288C24.5707 20.106 24.5475 20.1815 24.5172 20.2542C24.4866 20.3273 24.4494 20.3974 24.406 20.4637C24.362 20.5295 24.3118 20.591 24.2562 20.6474C24.0289 20.8722 23.7223 20.9989 23.4026 21.0001V21.0003ZM22.3393 61.7643C22.2603 61.7644 22.1814 61.7563 22.1041 61.7401C22.0268 61.7243 21.9513 61.7012 21.8786 61.6709C21.8053 61.6407 21.7352 61.6034 21.6691 61.5597C21.6033 61.5157 21.5418 61.4655 21.4854 61.4099C21.2616 61.1861 21.1327 60.8737 21.1327 60.5563C21.1327 60.2388 21.2616 59.9265 21.4854 59.701C21.5419 59.6454 21.6034 59.5953 21.6691 59.5512C21.8013 59.4639 21.9489 59.4026 22.1041 59.3708C22.2599 59.3401 22.4203 59.3401 22.5761 59.3708C22.7313 59.4028 22.8789 59.464 23.0112 59.5512C23.0772 59.5946 23.1383 59.6462 23.1947 59.701C23.4186 59.9265 23.5491 60.2374 23.5491 60.5563C23.5491 60.8751 23.4186 61.1844 23.1947 61.4099C23.1384 61.4655 23.0769 61.5156 23.0112 61.5597C22.879 61.647 22.7313 61.7082 22.5761 61.7401C22.4982 61.7562 22.4188 61.7643 22.3393 61.7643ZM30.7461 47.1239C30.6672 47.1239 30.5882 47.1159 30.5109 47.0997C30.4332 47.0838 30.3571 47.0606 30.2838 47.0305C30.2113 47.0015 30.1421 46.9627 30.076 46.9193C30.0098 46.8758 29.9487 46.8259 29.8924 46.7695C29.8364 46.7135 29.7861 46.652 29.7425 46.5858C29.6986 46.5205 29.6614 46.4508 29.6314 46.378C29.6013 46.3046 29.5781 46.2286 29.5622 46.1509C29.5461 46.0735 29.538 45.9947 29.5381 45.9157C29.5381 45.5968 29.6669 45.2859 29.8924 45.0604C30.1198 44.8355 30.4263 44.7089 30.7461 44.7076C31.0651 44.7076 31.3759 44.8365 31.6014 45.0604C31.8266 45.2882 31.9533 45.5953 31.9541 45.9157C31.9541 45.9946 31.9462 46.0736 31.9316 46.1509C31.9154 46.2282 31.8914 46.3039 31.8622 46.378C31.8317 46.4505 31.7945 46.5201 31.7512 46.5858C31.7071 46.6516 31.6569 46.7131 31.6012 46.7695C31.374 46.9958 31.0666 47.1231 30.7459 47.1239H30.7461ZM69.1631 47.1239C69.0842 47.1239 69.0052 47.1159 68.9279 47.0997C68.8502 47.0838 68.7741 47.0606 68.7008 47.0305C68.6278 47.0008 68.5582 46.9635 68.493 46.9193C68.4265 46.8762 68.365 46.826 68.3094 46.7695C68.253 46.7139 68.2027 46.6523 68.1595 46.5858C68.1156 46.5205 68.0784 46.4508 68.0485 46.378C68.0176 46.3049 67.9944 46.2288 67.9792 46.1509C67.9472 45.9952 67.9472 45.8347 67.9792 45.679C67.9941 45.6016 68.0174 45.526 68.0485 45.4535C68.1085 45.3064 68.1972 45.1728 68.3094 45.0604C68.5897 44.7801 69.0085 44.6514 69.3998 44.7302C69.6332 44.7777 69.8476 44.8925 70.0166 45.0604C70.2421 45.2859 70.371 45.5968 70.371 45.9157C70.371 46.2345 70.2421 46.544 70.0166 46.7695C69.961 46.8259 69.8995 46.8761 69.8331 46.9193C69.7679 46.9635 69.6983 47.0008 69.6253 47.0305C69.5525 47.0608 69.477 47.084 69.3998 47.0997C69.3219 47.1157 69.2426 47.1238 69.1631 47.1239ZM52.6333 49.9734C52.3135 49.9725 52.0068 49.8458 51.7796 49.6207C51.7236 49.5648 51.6734 49.5033 51.6298 49.4372C51.5862 49.371 51.5493 49.3002 51.5186 49.2277C51.4575 49.0812 51.4257 48.9241 51.4253 48.7654C51.426 48.6072 51.4577 48.4507 51.5186 48.3047C51.5493 48.2306 51.5862 48.1614 51.6298 48.0952C51.6734 48.029 51.7236 47.9675 51.7796 47.9116C52.0599 47.6313 52.4772 47.5024 52.87 47.5813C52.9473 47.5974 53.023 47.6199 53.0955 47.6506C53.1679 47.6812 53.2388 47.7182 53.3049 47.7618C53.3711 47.8054 53.4322 47.8551 53.4886 47.9116C53.5434 47.968 53.5948 48.0291 53.6384 48.0952C53.6818 48.1612 53.7189 48.2306 53.7494 48.3047C53.7801 48.3771 53.8026 48.4528 53.8188 48.5302C53.8332 48.6075 53.8413 48.6881 53.8413 48.7654C53.8413 48.8443 53.8334 48.9249 53.8188 49.0022C53.8026 49.0796 53.7801 49.1553 53.7494 49.2277C53.7189 49.3008 53.6817 49.3709 53.6384 49.4372C53.5943 49.5029 53.5442 49.5643 53.4886 49.6207C53.4322 49.6755 53.3709 49.727 53.3049 49.7705C53.2389 49.8139 53.1681 49.851 53.0955 49.8817C53.0229 49.9123 52.9473 49.9349 52.87 49.9509C52.792 49.9664 52.7128 49.9739 52.6333 49.9734ZM59.2584 47.1239C59.0997 47.1234 58.9427 47.0916 58.7962 47.0305C58.6493 46.9703 58.5157 46.8816 58.4033 46.7695C58.3477 46.7131 58.2975 46.6516 58.2533 46.5858C58.21 46.5201 58.1728 46.4505 58.1423 46.378C58.1121 46.3046 58.0889 46.2286 58.073 46.1509C58.0582 46.0734 58.0506 45.9946 58.0504 45.9157C58.0504 45.5984 58.1792 45.2859 58.4031 45.0604C58.4594 45.0056 58.5206 44.9542 58.5866 44.9106C58.6526 44.867 58.7236 44.83 58.7961 44.7994C58.8688 44.7695 58.9444 44.7469 59.0215 44.7318C59.4129 44.6512 59.8318 44.7801 60.1119 45.0604C60.3379 45.2878 60.4652 45.5951 60.4663 45.9157C60.4663 45.9946 60.4583 46.0736 60.4423 46.1509C60.4277 46.2282 60.4035 46.3039 60.3729 46.378C60.3429 46.4508 60.3057 46.5204 60.2618 46.5858C60.2183 46.652 60.168 46.7136 60.1119 46.7695C59.8851 46.9955 59.5785 47.1228 59.2584 47.1239ZM47.9814 45.7177C47.902 45.7175 47.8228 45.7099 47.7447 45.6952C47.6677 45.6788 47.5922 45.6556 47.5192 45.626C47.4462 45.5954 47.3761 45.5581 47.3098 45.5148C47.2444 45.4703 47.183 45.4202 47.1263 45.365C47.0706 45.3086 47.0204 45.2471 46.9763 45.1813C46.933 45.1151 46.8958 45.0449 46.8653 44.9719C46.8349 44.8991 46.8117 44.8236 46.7959 44.7464C46.7815 44.6674 46.7734 44.5885 46.7734 44.5095C46.7734 44.4306 46.7813 44.3516 46.7959 44.2743C46.8121 44.197 46.8347 44.1213 46.8653 44.0472C46.8958 43.9747 46.9329 43.9054 46.9763 43.8394C47.0639 43.7069 47.1773 43.5934 47.3098 43.5059C47.3757 43.4619 47.4459 43.4247 47.5192 43.3947C47.592 43.3643 47.6675 43.3412 47.7447 43.3255C48.1377 43.2465 48.5548 43.3754 48.8351 43.6557C48.8915 43.7105 48.9414 43.7732 48.985 43.8394C49.0285 43.9054 49.0672 43.9747 49.0961 44.0472C49.1267 44.1213 49.1493 44.197 49.1653 44.2743C49.1972 44.43 49.1972 44.5906 49.1653 44.7464C49.1496 44.8236 49.1264 44.8991 49.0961 44.9719C49.0361 45.1189 48.9473 45.2526 48.8351 45.365C48.6079 45.5901 48.3012 45.7168 47.9814 45.7177ZM61.5701 61.7643C61.4911 61.7643 61.4122 61.7564 61.3332 61.7401C61.256 61.7243 61.1805 61.7012 61.1077 61.6709C61.0342 61.6413 60.964 61.604 60.8983 61.5597C60.8321 61.5162 60.7706 61.466 60.7146 61.4099C60.5751 61.2687 60.472 61.0956 60.4145 60.9056C60.3569 60.7156 60.3466 60.5145 60.3844 60.3196C60.4162 60.1644 60.4774 60.0167 60.5648 59.8846C60.6083 59.8185 60.6598 59.7574 60.7146 59.701C60.7711 59.6454 60.8325 59.5953 60.8983 59.5512C61.0304 59.4639 61.1781 59.4026 61.3332 59.3708C61.4891 59.3401 61.6494 59.3401 61.8053 59.3708C61.8825 59.3868 61.9582 59.4093 62.0324 59.44C62.1049 59.4707 62.1744 59.5079 62.2401 59.5512C62.3727 59.6385 62.4862 59.752 62.5735 59.8846C62.6609 60.0167 62.7222 60.1644 62.754 60.3196C62.7859 60.4753 62.7859 60.6358 62.754 60.7915C62.738 60.8692 62.7148 60.9452 62.6847 61.0186C62.6541 61.0911 62.6169 61.1607 62.5735 61.2264C62.4862 61.3591 62.3727 61.4725 62.2401 61.5597C62.1747 61.6036 62.1052 61.6409 62.0324 61.6709C61.959 61.701 61.883 61.7242 61.8053 61.7401C61.7279 61.7562 61.6491 61.7643 61.5701 61.7643ZM35.9184 13.2412C35.8393 13.2411 35.7605 13.233 35.6832 13.2171C35.6055 13.2017 35.5294 13.1791 35.456 13.1495C35.3835 13.1188 35.3139 13.0816 35.2482 13.0383C35.1828 12.9937 35.1213 12.9436 35.0645 12.8885C35.0085 12.8319 34.9584 12.7698 34.9148 12.7032C34.8711 12.6377 34.8339 12.5681 34.8037 12.4954C34.7736 12.4225 34.7504 12.347 34.7343 12.2699C34.7183 12.1909 34.7103 12.112 34.7103 12.0332C34.7103 11.9544 34.7183 11.8753 34.7343 11.798C34.7816 11.5639 34.8964 11.3489 35.0645 11.1794C35.1205 11.1233 35.1821 11.0731 35.2482 11.0296C35.3136 10.9857 35.3832 10.9484 35.456 10.9184C35.5291 10.8875 35.6053 10.8643 35.6832 10.8491C35.8388 10.8169 35.9994 10.8169 36.1551 10.8491C36.2322 10.8636 36.3081 10.8877 36.3805 10.9184C36.4546 10.9474 36.5238 10.9861 36.59 11.0296C36.6561 11.073 36.7172 11.1229 36.7735 11.1794C36.8283 11.2342 36.8798 11.2969 36.9233 11.363C37.0112 11.4949 37.0725 11.6426 37.1037 11.798C37.1181 11.8753 37.1264 11.9542 37.1264 12.0332C37.1264 12.1121 37.1183 12.1911 37.1037 12.2699C37.0721 12.4246 37.0109 12.5718 36.9233 12.7032C36.8796 12.7698 36.8295 12.8319 36.7735 12.8885C36.7168 12.9436 36.6554 12.9937 36.59 13.0383C36.4581 13.1258 36.3103 13.1865 36.1551 13.2171C36.0772 13.2331 35.9979 13.2412 35.9184 13.2412ZM41.73 33.6304C41.4913 33.6296 41.2582 33.5584 41.0598 33.4258C40.9929 33.3827 40.9307 33.3324 40.8745 33.276C40.6494 33.0488 40.5227 32.7421 40.5218 32.4222C40.5218 32.3432 40.5297 32.2643 40.5458 32.1855C40.5602 32.1082 40.5845 32.0325 40.6134 31.96C40.644 31.8875 40.681 31.8167 40.7246 31.7506C40.7697 31.6846 40.8196 31.6233 40.8744 31.567C40.931 31.5111 40.9931 31.4609 41.0597 31.4173C41.1252 31.3736 41.1948 31.3364 41.2675 31.3061C41.3403 31.2762 41.4158 31.2535 41.493 31.2385C41.8861 31.1579 42.3032 31.2868 42.5835 31.567C42.6397 31.6233 42.6898 31.6846 42.7333 31.7506C42.7769 31.8167 42.8155 31.8875 42.8445 31.96C42.875 32.0325 42.8977 32.1082 42.9137 32.1855C42.9298 32.2644 42.9379 32.3434 42.9379 32.4222C42.937 32.7424 42.8096 33.0493 42.5835 33.276C42.3569 33.5022 42.05 33.6296 41.7298 33.6304H41.73ZM68.1049 36.0901C67.7845 36.0891 67.4774 35.9625 67.2496 35.7373C67.0244 35.5095 66.8978 35.2023 66.8968 34.882C66.8968 34.5648 67.0259 34.2522 67.2496 34.0284C67.4751 33.8029 67.786 33.674 68.1049 33.674C68.4237 33.674 68.7347 33.8029 68.9587 34.0284C69.1848 34.255 69.3122 34.5619 69.3129 34.882C69.3121 35.2027 69.1848 35.51 68.9587 35.7373C68.8462 35.8487 68.7133 35.9374 68.5672 35.9983C68.4938 36.0285 68.4178 36.0516 68.3401 36.0675C68.2625 36.0823 68.1838 36.0898 68.1049 36.0901Z" fill="#F2F2F2"/>
</svg>
