<svg width="84" height="84" viewBox="0 0 84 84" fill="none" xmlns="http://www.w3.org/2000/svg">
<path d="M60.375 10.5H55.125V9.1875C55.125 5.56763 52.1824 2.625 48.5625 2.625H35.4375C33.6974 2.62639 32.0291 3.31824 30.7986 4.54865C29.5682 5.77905 28.8764 7.44744 28.875 9.1875V10.5H23.625C17.8342 10.5 13.125 15.2092 13.125 21V70.875C13.125 76.6658 17.8342 81.375 23.625 81.375H60.375C66.1658 81.375 70.875 76.6658 70.875 70.875V21C70.875 15.2092 66.1658 10.5 60.375 10.5ZM34.125 9.1875C34.125 8.47613 34.7261 7.875 35.4375 7.875H48.5625C49.2739 7.875 49.875 8.47613 49.875 9.1875V17.0625C49.875 17.7739 49.2739 18.375 48.5625 18.375H35.4375C35.0907 18.3709 34.7592 18.2313 34.5139 17.9861C34.2687 17.7408 34.1291 17.4093 34.125 17.0625V9.1875ZM65.625 70.875C65.625 73.7704 63.2704 76.125 60.375 76.125H23.625C20.7296 76.125 18.375 73.7704 18.375 70.875V21C18.375 18.1046 20.7296 15.75 23.625 15.75H28.875V17.0625C28.875 20.6824 31.8176 23.625 35.4375 23.625H48.5625C52.1824 23.625 55.125 20.6824 55.125 17.0625V15.75H60.375C63.2704 15.75 65.625 18.1046 65.625 21V70.875ZM60.375 63C60.375 63.6962 60.0984 64.3639 59.6062 64.8562C59.1139 65.3484 58.4462 65.625 57.75 65.625H42C41.3038 65.625 40.6361 65.3484 40.1438 64.8562C39.6516 64.3639 39.375 63.6962 39.375 63C39.375 62.3038 39.6516 61.6361 40.1438 61.1438C40.6361 60.6516 41.3038 60.375 42 60.375H57.75C58.4462 60.375 59.1139 60.6516 59.6062 61.1438C60.0984 61.6361 60.375 62.3038 60.375 63ZM60.375 47.25C60.375 47.9462 60.0984 48.6139 59.6062 49.1062C59.1139 49.5984 58.4462 49.875 57.75 49.875H42C41.3038 49.875 40.6361 49.5984 40.1438 49.1062C39.6516 48.6139 39.375 47.9462 39.375 47.25C39.375 46.5538 39.6516 45.8861 40.1438 45.3938C40.6361 44.9016 41.3038 44.625 42 44.625H57.75C58.4462 44.625 59.1139 44.9016 59.6062 45.3938C60.0984 45.8861 60.375 46.5538 60.375 47.25ZM28.875 31.5C28.875 30.8038 29.1516 30.1361 29.6438 29.6438C30.1361 29.1516 30.8038 28.875 31.5 28.875H52.5C53.1962 28.875 53.8639 29.1516 54.3562 29.6438C54.8484 30.1361 55.125 30.8038 55.125 31.5C55.125 32.1962 54.8484 32.8639 54.3562 33.3562C53.8639 33.8484 53.1962 34.125 52.5 34.125H31.5C30.8038 34.125 30.1361 33.8484 29.6438 33.3562C29.1516 32.8639 28.875 32.1962 28.875 31.5ZM35.9809 42.7691C36.473 43.2614 36.7494 43.9289 36.7494 44.625C36.7494 45.3211 36.473 45.9886 35.9809 46.4809L30.7309 51.7309C30.4877 51.9755 30.1985 52.1696 29.88 52.3021C29.5615 52.4345 29.2199 52.5027 28.875 52.5027C28.5301 52.5027 28.1885 52.4345 27.87 52.3021C27.5515 52.1696 27.2623 51.9755 27.0191 51.7309L24.3941 49.1059C24.1434 48.8637 23.9434 48.5741 23.8059 48.2538C23.6683 47.9336 23.5959 47.5891 23.5928 47.2406C23.5898 46.892 23.6562 46.5464 23.7882 46.2237C23.9202 45.9011 24.1151 45.6081 24.3616 45.3616C24.6081 45.1151 24.9011 44.9202 25.2237 44.7882C25.5463 44.6562 25.892 44.5898 26.2406 44.5928C26.5891 44.5959 26.9336 44.6683 27.2538 44.8059C27.5741 44.9434 27.8637 45.1434 28.1059 45.3941L28.875 46.1633L32.2691 42.7691C32.7614 42.277 33.4289 42.0006 34.125 42.0006C34.8211 42.0006 35.4886 42.277 35.9809 42.7691ZM35.9809 58.5191C36.473 59.0114 36.7494 59.6789 36.7494 60.375C36.7494 61.0711 36.473 61.7386 35.9809 62.2309L30.7309 67.4809C30.4877 67.7255 30.1985 67.9196 29.88 68.0521C29.5615 68.1845 29.2199 68.2527 28.875 68.2527C28.5301 68.2527 28.1885 68.1845 27.87 68.0521C27.5515 67.9196 27.2623 67.7255 27.0191 67.4809L24.3941 64.8559C24.1434 64.6137 23.9434 64.3241 23.8059 64.0038C23.6683 63.6836 23.5959 63.3391 23.5928 62.9906C23.5898 62.642 23.6562 62.2964 23.7882 61.9737C23.9202 61.6511 24.1151 61.3581 24.3616 61.1116C24.6081 60.8651 24.9011 60.6702 25.2237 60.5382C25.5463 60.4062 25.892 60.3398 26.2406 60.3428C26.5891 60.3459 26.9336 60.4183 27.2538 60.5559C27.5741 60.6934 27.8637 60.8934 28.1059 61.1441L28.875 61.9133L32.2691 58.5191C32.7614 58.027 33.4289 57.7506 34.125 57.7506C34.8211 57.7506 35.4886 58.027 35.9809 58.5191Z" fill="#F2F2F2"/>
</svg>
