<svg width="39" height="39" viewBox="0 0 39 39" fill="none" xmlns="http://www.w3.org/2000/svg">
<g clip-path="url(#clip0_143_626)">
<path d="M38.8759 17.254C38.793 17.0557 38.6744 16.8753 38.5233 16.7242L33.6499 11.8508C33.0145 11.2171 31.9875 11.2171 31.3522 11.8508C30.7168 12.4862 30.7168 13.5148 31.3522 14.1485L33.4533 16.2497H24.376C23.4774 16.2497 22.751 16.9776 22.751 17.8746C22.751 18.7716 23.4774 19.4996 24.376 19.4996H33.4532L31.3521 21.6007C30.7167 22.2361 30.7167 23.2647 31.3521 23.8985C31.669 24.2169 32.0849 24.3746 32.501 24.3746C32.917 24.3746 33.333 24.217 33.6499 23.8985L38.5233 19.025C38.6744 18.8755 38.793 18.6951 38.8759 18.4953C39.0399 18.0978 39.0399 17.6515 38.8759 17.254Z" fill="#F2F2F2"/>
<path d="M27.6259 22.75C26.7273 22.75 26.0009 23.478 26.0009 24.375V32.5H19.501V6.49997C19.501 5.78335 19.0297 5.1496 18.3423 4.94325L12.6987 3.25003H26.0009V11.3751C26.0009 12.2721 26.7273 13 27.6259 13C28.5245 13 29.2509 12.2721 29.2509 11.3751V1.62505C29.2509 0.727975 28.5245 0 27.6259 0H1.62595C1.56745 0 1.51543 0.024375 1.4586 0.0308496C1.3822 0.039 1.31235 0.0519492 1.23923 0.0698496C1.07311 0.111994 0.91464 0.179982 0.769627 0.271324C0.733902 0.2941 0.690027 0.295699 0.655902 0.321674C0.642801 0.3315 0.637926 0.3494 0.6249 0.35915C0.447801 0.49885 0.299951 0.669475 0.192701 0.872625C0.169926 0.9165 0.165051 0.96365 0.147227 1.00912C0.0952012 1.1326 0.038377 1.25287 0.018877 1.38937C0.0107266 1.43813 0.0253516 1.4836 0.023752 1.53075C0.0221523 1.56328 0.000976562 1.59253 0.000976562 1.62497V34.125C0.000976562 34.9001 0.548576 35.5664 1.30748 35.7175L17.5574 38.9676C17.6631 38.9903 17.7703 39.0001 17.8759 39.0001C18.2517 39.0001 18.6158 38.8697 18.9062 38.6312C19.0919 38.4787 19.2416 38.287 19.3444 38.0698C19.4473 37.8526 19.5007 37.6153 19.5009 37.375V35.7501H27.6259C28.5245 35.7501 29.2509 35.0221 29.2509 34.1251V24.375C29.2509 23.478 28.5245 22.75 27.6259 22.75Z" fill="#F2F2F2"/>
</g>
<defs>
<clipPath id="clip0_143_626">
<rect width="39" height="39" fill="white"/>
</clipPath>
</defs>
</svg>
