<svg width="42" height="38" viewBox="0 0 42 38" fill="none" xmlns="http://www.w3.org/2000/svg">
<path d="M38.4787 32.4368C36.4282 25.2246 29.2406 20.1875 20.9999 20.1875C12.7592 20.1875 5.57163 25.2246 3.52109 32.4367C3.14465 33.7605 3.47286 35.1957 4.39891 36.2759C5.32463 37.3555 6.77921 38 8.29006 38H33.7097C35.242 38 36.6597 37.3715 37.5991 36.2757C38.526 35.1948 38.8548 33.7597 38.4787 32.4368ZM35.0066 34.4561C34.6932 34.8216 34.2205 35.0312 33.7097 35.0312H8.29006C7.78573 35.0312 7.30035 34.8163 6.99159 34.4562C6.67823 34.0907 6.57159 33.6242 6.6989 33.1763C8.37628 27.2767 14.257 23.1562 20.9999 23.1562C27.7428 23.1562 33.6236 27.2767 35.3009 33.1763C35.4261 33.6166 35.3161 34.0951 35.0066 34.4561ZM20.9999 17.8125C26.4277 17.8125 30.8437 13.8172 30.8437 8.90625C30.8437 3.99534 26.4277 0 20.9999 0C15.5721 0 11.1562 3.99534 11.1562 8.90625C11.1562 13.8172 15.5721 17.8125 20.9999 17.8125ZM20.9999 2.96875C24.6185 2.96875 27.5624 5.63231 27.5624 8.90625C27.5624 12.1802 24.6185 14.8438 20.9999 14.8438C17.3813 14.8438 14.4374 12.1802 14.4374 8.90625C14.4374 5.63231 17.3813 2.96875 20.9999 2.96875Z" fill="#F2F2F2"/>
</svg>
