<svg width="148" height="144" viewBox="0 0 148 144" fill="none" xmlns="http://www.w3.org/2000/svg">
<ellipse cx="74" cy="72" rx="74" ry="72" fill="#F2B035"/>
<g clip-path="url(#clip0_136_255)">
<path fill-rule="evenodd" clip-rule="evenodd" d="M97.653 45.6732C91.4258 39.4387 83.1441 36.0036 74.3211 36C56.1408 36 41.3446 50.7958 41.3373 68.981C41.3349 74.7943 42.8534 80.4689 45.7399 85.4709L41.0607 102.562L58.5459 97.9757C63.3638 100.604 68.7879 101.989 74.3077 101.99H74.3217C92.5 101.99 107.298 87.1935 107.305 69.0074C107.308 60.1939 103.881 51.9074 97.653 45.6732ZM74.3211 96.42H74.3097C69.3907 96.4179 64.5663 95.096 60.3565 92.5987L59.356 92.0043L48.98 94.7263L51.7494 84.6098L51.0973 83.5727C48.353 79.2078 46.9038 74.1629 46.9063 68.983C46.9121 53.8679 59.2105 41.5707 74.3322 41.5707C81.6547 41.573 88.538 44.4283 93.7138 49.6102C98.8895 54.792 101.738 61.6799 101.736 69.0053C101.729 84.1215 89.4318 96.42 74.3211 96.42ZM89.3586 75.8878C88.5347 75.4751 84.4826 73.482 83.7269 73.2065C82.9721 72.9315 82.422 72.7945 81.8732 73.6192C81.3235 74.444 79.7443 76.3006 79.2633 76.8502C78.7823 77.4004 78.3021 77.4694 77.4778 77.0567C76.6535 76.6443 73.9981 75.7737 70.85 72.966C68.4002 70.7807 66.7463 68.0819 66.2653 67.2572C65.7851 66.4316 66.2611 66.0286 66.6268 65.5752C67.519 64.4673 68.4124 63.3058 68.687 62.7561C68.962 62.206 68.8243 61.7246 68.618 61.3123C68.4124 60.8999 66.7642 56.8433 66.0776 55.1927C65.4081 53.5863 64.7292 53.8032 64.223 53.7781C63.7428 53.7541 63.1931 53.7492 62.6435 53.7492C62.0941 53.7492 61.2011 53.9551 60.4456 54.7807C59.6903 55.6059 57.5615 57.5994 57.5615 61.656C57.5615 65.7126 60.5146 69.6313 60.9266 70.1814C61.3384 70.7316 66.7382 79.0558 75.0053 82.6253C76.9716 83.4753 78.5065 83.9819 79.7037 84.3617C81.6782 84.9889 83.4743 84.9004 84.8946 84.6883C86.4781 84.4514 89.7702 82.6944 90.4575 80.7694C91.1442 78.8443 91.1442 77.1944 90.9377 76.8502C90.7322 76.5066 90.1826 76.3006 89.3586 75.8878Z" fill="#F2F2F2"/>
</g>
<defs>
<clipPath id="clip0_136_255">
<rect width="71" height="71" fill="white" transform="translate(41 36)"/>
</clipPath>
</defs>
</svg>
