<svg width="30" height="30" viewBox="0 0 30 30" fill="none" xmlns="http://www.w3.org/2000/svg">
<g clip-path="url(#clip0_317_256)">
<path d="M27.8041 2.7273H5.45453C5.38722 2.7273 5.32579 2.75261 5.2627 2.77159L4.71337 0.966414C4.62827 0.686799 4.45557 0.441933 4.22073 0.26793C3.98589 0.093927 3.70135 -6.32612e-07 3.40907 0L0.68184 0C0.305284 0 0 0.305284 0 0.68184V2.04546C0 2.42201 0.305284 2.7273 0.68184 2.7273H2.39906L6.65911 16.7265L5.06806 18.5827C4.43921 19.3163 4.15605 20.3272 4.44548 21.249C4.81564 22.428 5.8562 23.1818 7.05593 23.1818H26.5909C26.9675 23.1818 27.2728 22.8765 27.2728 22.5V21.1363C27.2728 20.7598 26.9675 20.4545 26.5909 20.4545H7.05586L9.21721 17.933C9.27154 17.8696 9.31149 17.798 9.35272 17.7272H22.5653C23.083 17.7272 23.59 17.5799 24.0271 17.3025C24.4642 17.0251 24.8133 16.6291 25.0338 16.1607L29.7916 6.05039C29.9284 5.75792 29.9995 5.43907 30 5.1162V4.92309C30 3.71046 29.0168 2.7273 27.8041 2.7273Z" fill="#F2F2F2"/>
<path d="M8.18189 30.0001C9.68813 30.0001 10.9092 28.779 10.9092 27.2728C10.9092 25.7665 9.68813 24.5455 8.18189 24.5455C6.67564 24.5455 5.45459 25.7665 5.45459 27.2728C5.45459 28.779 6.67564 30.0001 8.18189 30.0001Z" fill="#F2F2F2"/>
<path d="M24.5457 30.0001C26.0519 30.0001 27.273 28.779 27.273 27.2728C27.273 25.7665 26.0519 24.5455 24.5457 24.5455C23.0394 24.5455 21.8184 25.7665 21.8184 27.2728C21.8184 28.779 23.0394 30.0001 24.5457 30.0001Z" fill="#F2F2F2"/>
</g>
<defs>
<clipPath id="clip0_317_256">
<rect width="30" height="30" fill="white"/>
</clipPath>
</defs>
</svg>
