<svg width="148" height="144" viewBox="0 0 148 144" fill="none" xmlns="http://www.w3.org/2000/svg">
<ellipse cx="74" cy="72" rx="74" ry="72" fill="#F2B035"/>
<g clip-path="url(#clip0_136_256)">
<path d="M93.2599 83.9525C90.8423 81.5657 87.8242 81.5657 85.422 83.9525C83.5895 85.7695 81.7571 87.5866 79.9555 89.4344C79.4627 89.9426 79.0469 90.0504 78.4464 89.7116C77.2607 89.0648 75.998 88.5413 74.8585 87.8329C69.5459 84.4914 65.0957 80.1952 61.1536 75.36C59.198 72.9578 57.4579 70.3862 56.2415 67.4913C55.9951 66.9061 56.0413 66.5211 56.5186 66.0438C58.3511 64.2729 60.1373 62.4559 61.939 60.6388C64.449 58.1134 64.449 55.1569 61.9236 52.6161C60.4915 51.1686 59.0594 49.752 57.6273 48.3045C56.1491 46.8262 54.6862 45.3325 53.1925 43.8697C50.7749 41.5137 47.7568 41.5137 45.3546 43.8851C43.5067 45.7021 41.7359 47.5653 39.8572 49.3516C38.1172 50.9992 37.2394 53.0165 37.0547 55.3725C36.7621 59.2068 37.7014 62.8255 39.0257 66.3518C41.7359 73.6507 45.8627 80.1336 50.8673 86.0775C57.6273 94.1156 65.6963 100.475 75.1357 105.064C79.3857 107.128 83.7897 108.714 88.5787 108.975C91.8741 109.16 94.7382 108.329 97.0326 105.757C98.6033 104.002 100.374 102.4 102.037 100.722C104.501 98.2271 104.516 95.2089 102.068 92.7451C99.1422 89.804 96.2011 86.8782 93.2599 83.9525ZM90.3188 71.6797L96.0009 70.7096C95.1078 65.4894 92.644 60.762 88.9021 57.0047C84.9446 53.0473 79.9401 50.5527 74.4273 49.7828L73.6266 55.4957C77.892 56.0962 81.7725 58.0211 84.8368 61.0854C87.7318 63.9804 89.6258 67.6452 90.3188 71.6797ZM99.2038 46.9802C92.644 40.4203 84.3441 36.2781 75.1819 35L74.3811 40.7129C82.2961 41.8216 89.4719 45.4095 95.1386 51.0608C100.513 56.435 104.039 63.2258 105.317 70.6942L110.999 69.7241C109.506 61.07 105.425 53.2167 99.2038 46.9802Z" fill="#F2F2F2"/>
</g>
<defs>
<clipPath id="clip0_136_256">
<rect width="74" height="74" fill="white" transform="translate(37 35)"/>
</clipPath>
</defs>
</svg>
