<svg width="53" height="53" viewBox="0 0 53 53" fill="none" xmlns="http://www.w3.org/2000/svg">
<g clip-path="url(#clip0_72_246)">
<path d="M50.7451 10.3562C50.4261 8.50243 49.3214 6.88292 47.7142 5.91281C41.3052 2.04463 33.9695 0 26.5 0C19.0306 0 11.6948 2.04463 5.28582 5.91292C3.67852 6.88302 2.57382 8.50253 2.25491 10.3563C2.09641 11.2754 2.13764 12.2178 2.3758 13.1196C2.61395 14.0213 3.04344 14.8612 3.63508 15.5822C4.20116 16.2719 4.90398 16.8369 5.69924 17.2415L10.5736 25.8302C10.4808 26.3 10.434 26.7778 10.4338 27.2567C10.4338 30.4857 12.5203 33.2347 15.4153 34.2314L26.5114 53.0002L47.2992 17.2423C48.0951 16.8376 48.7985 16.2724 49.365 15.5823C49.9566 14.8613 50.3861 14.0213 50.6242 13.1195C50.8624 12.2178 50.9036 11.2753 50.7451 10.3562ZM13.5666 27.2566C13.5666 24.9169 15.47 23.0134 17.8097 23.0134C20.1495 23.0134 22.0529 24.9169 22.0529 27.2566C22.0529 29.5962 20.1495 31.4997 17.8097 31.4997C15.47 31.4997 13.5666 29.5962 13.5666 27.2566ZM26.4886 46.806L19.2117 34.4972C22.6104 33.8403 25.1856 30.8443 25.1856 27.2566C25.1856 23.1895 21.8769 19.8807 17.8097 19.8807C15.5895 19.8807 13.5967 20.8681 12.2434 22.4254L9.65681 17.8678C10.4991 17.7364 11.308 17.4429 12.0387 17.0037C16.3669 14.4004 21.3131 13.0135 26.3519 12.9867C26.0267 13.8326 25.8603 14.7313 25.8609 15.6375C25.8609 19.7046 29.1697 23.0134 33.2367 23.0134C36.9262 23.0134 39.9912 20.2907 40.5288 16.749C40.6736 16.8327 40.8178 16.9175 40.9613 17.0037C41.6835 17.438 42.4823 17.7298 43.3143 17.8635L37.2519 28.2918C36.2061 27.751 35.0459 27.4689 33.8686 27.4691C29.8015 27.4691 26.4927 30.7779 26.4927 34.845C26.4911 36.0739 26.7972 37.2837 27.383 38.3641C27.9688 39.4444 28.8157 40.3609 29.8465 41.0301L26.4886 46.806ZM37.4577 15.2182C37.4713 15.3573 37.4799 15.4971 37.4799 15.6375C37.4799 17.9773 35.5765 19.8807 33.2367 19.8807C30.8971 19.8807 28.9937 17.9773 28.9937 15.6375C28.9937 14.7436 29.2695 13.892 29.7789 13.1785C32.4223 13.4908 35.0078 14.1776 37.4577 15.2182ZM29.6254 34.845C29.6254 32.5053 31.5289 30.6018 33.8686 30.6018C34.4994 30.6018 35.1144 30.7422 35.6742 31.0056L31.4245 38.3159C30.8679 37.9243 30.4139 37.4045 30.1007 36.8003C29.7876 36.1962 29.6246 35.5255 29.6254 34.845ZM46.9427 13.5953C45.8764 14.8953 44.0397 15.1997 42.5759 14.3192C37.7178 11.3972 32.1589 9.85274 26.4999 9.85274C20.841 9.85274 15.282 11.3972 10.424 14.3192C8.95999 15.1996 7.12358 14.8953 6.0572 13.5953C5.75064 13.2217 5.52811 12.7865 5.40473 12.3193C5.28136 11.852 5.26003 11.3637 5.34221 10.8875C5.50689 9.93043 6.07631 9.09483 6.90461 8.59495C12.825 5.02155 19.601 3.13273 26.5 3.13273C33.399 3.13273 40.175 5.02155 46.0954 8.59495C46.9237 9.09483 47.4932 9.93043 47.6578 10.8875C47.74 11.3637 47.7186 11.852 47.5952 12.3193C47.4718 12.7865 47.2493 13.2217 46.9427 13.5953Z" fill="white"/>
</g>
<defs>
<clipPath id="clip0_72_246">
<rect width="53" height="53" fill="white"/>
</clipPath>
</defs>
</svg>
