<svg width="97" height="97" viewBox="0 0 97 97" fill="none" xmlns="http://www.w3.org/2000/svg">
<path d="M38.2764 31.1836C38.2764 33.2386 39.0778 35.1738 40.5343 36.6288C40.6894 36.7844 40.8737 36.9079 41.0767 36.9921C41.2796 37.0763 41.4972 37.1196 41.7169 37.1195C42.1454 37.1195 42.5732 36.9551 42.8996 36.6288C43.0552 36.4737 43.1785 36.2895 43.2627 36.0866C43.3469 35.8837 43.3902 35.6663 43.3902 35.4466C43.3902 35.227 43.3469 35.0095 43.2627 34.8067C43.1785 34.6038 43.0552 34.4195 42.8996 34.2644C42.0767 33.4415 41.6214 32.3476 41.6214 31.1843C41.6214 30.0201 42.0751 28.9264 42.8995 28.1034C45.9011 25.101 45.9011 20.2146 42.8995 17.2127C42.7444 17.0572 42.5601 16.9338 42.3572 16.8496C42.1544 16.7655 41.9369 16.7221 41.7173 16.7221C41.4976 16.7221 41.2801 16.7655 41.0773 16.8496C40.8744 16.9338 40.6902 17.0572 40.5351 17.2127C40.3796 17.3678 40.2562 17.5521 40.172 17.7549C40.0878 17.9578 40.0445 18.1753 40.0445 18.3949C40.0445 18.6145 40.0878 18.832 40.172 19.0349C40.2562 19.2377 40.3796 19.422 40.5351 19.5771C42.2328 21.2765 42.2328 24.0391 40.5351 25.7381C39.078 27.1954 38.2764 29.1284 38.2764 31.1836ZM20.069 31.1836C20.069 33.2386 20.8704 35.1738 22.3269 36.6288C22.482 36.7845 22.6663 36.908 22.8692 36.9922C23.0722 37.0764 23.2898 37.1196 23.5095 37.1195C23.7292 37.1196 23.9468 37.0763 24.1497 36.9921C24.3526 36.9079 24.5369 36.7844 24.6921 36.6288C24.8476 36.4737 24.971 36.2895 25.0551 36.0866C25.1393 35.8837 25.1827 35.6663 25.1827 35.4466C25.1827 35.227 25.1393 35.0095 25.0551 34.8067C24.971 34.6038 24.8476 34.4195 24.6921 34.2644C23.8676 33.4415 23.414 32.3476 23.414 31.1843C23.414 30.0201 23.8676 28.9264 24.6921 28.1034C27.6938 25.101 27.6938 20.2146 24.6921 17.2127C24.537 17.0572 24.3527 16.9338 24.1498 16.8496C23.947 16.7655 23.7295 16.7221 23.5099 16.7221C23.2902 16.7221 23.0728 16.7655 22.8699 16.8496C22.667 16.9338 22.4828 17.0572 22.3277 17.2127C22.1722 17.3678 22.0488 17.5521 21.9646 17.7549C21.8804 17.9578 21.8371 18.1753 21.8371 18.3949C21.8371 18.6145 21.8804 18.832 21.9646 19.0349C22.0488 19.2377 22.1722 19.422 22.3277 19.5771C24.0246 21.2765 24.0246 24.0391 22.3277 25.7381C20.8704 27.1954 20.069 29.1284 20.069 31.1836ZM29.9145 26.1667C29.9145 28.2218 30.7159 30.1571 32.1724 31.6119C32.3276 31.7675 32.5119 31.8909 32.7149 31.9749C32.9179 32.059 33.1355 32.1021 33.3552 32.1018C33.7828 32.1018 34.2115 31.9383 34.5377 31.6119C34.6931 31.4567 34.8163 31.2724 34.9004 31.0696C34.9845 30.8667 35.0278 30.6493 35.0278 30.4297C35.0278 30.2101 34.9845 29.9927 34.9004 29.7899C34.8163 29.587 34.6931 29.4027 34.5377 29.2475C33.7148 28.4246 33.2597 27.3308 33.2597 26.1667C33.2597 25.0034 33.7132 23.9088 34.5377 23.0865C37.5394 20.0843 37.5394 15.1977 34.5377 12.196C34.3826 12.0405 34.1982 11.9171 33.9953 11.8329C33.7924 11.7487 33.5748 11.7053 33.3551 11.7053C33.1354 11.7053 32.9178 11.7487 32.7149 11.8329C32.5119 11.9171 32.3276 12.0405 32.1724 12.196C32.0171 12.3512 31.8938 12.5355 31.8097 12.7383C31.7257 12.9412 31.6824 13.1586 31.6824 13.3782C31.6824 13.5978 31.7257 13.8152 31.8097 14.0181C31.8938 14.2209 32.0171 14.4052 32.1724 14.5604C33.8701 16.2598 33.8701 19.0222 32.1724 20.7214C30.7161 22.1779 29.9145 24.1107 29.9145 26.1667ZM23.414 60.2068C19.6628 60.2068 16.7246 62.4092 16.7246 65.2243C16.7246 68.0388 19.6626 70.241 23.414 70.241C27.1652 70.241 30.1034 68.0388 30.1034 65.2243C30.1034 62.4092 27.1656 60.2068 23.414 60.2068ZM23.414 66.8968C21.3723 66.8968 20.069 65.9067 20.069 65.2243C20.069 64.5421 21.3723 63.5518 23.414 63.5518C25.4557 63.5518 26.759 64.5421 26.759 65.2243C26.759 65.9067 25.4557 66.8968 23.414 66.8968ZM28.4315 46.8275C24.6803 46.8275 21.7415 49.0306 21.7415 51.8449C21.7415 54.6593 24.6803 56.8626 28.4315 56.8626C32.1821 56.8626 35.1209 54.6593 35.1209 51.8449C35.1209 49.0297 32.1828 46.8275 28.4315 46.8275ZM28.4315 53.5174C26.3892 53.5174 25.0865 52.5273 25.0865 51.8449C25.0865 51.1625 26.389 50.1724 28.4315 50.1724C30.4734 50.1724 31.7759 51.1627 31.7759 51.8449C31.7759 52.5272 30.4734 53.5174 28.4315 53.5174ZM45.1553 53.5174C48.9064 53.5174 51.8452 51.3143 51.8452 48.5C51.8452 45.6847 48.9066 43.4825 45.1553 43.4825C41.4047 43.4825 38.4659 45.6849 38.4659 48.5C38.4659 51.3143 41.4039 53.5174 45.1553 53.5174ZM45.1553 46.8275C47.1978 46.8275 48.5003 47.8175 48.5003 48.5C48.5003 49.1824 47.1978 50.1724 45.1553 50.1724C43.1133 50.1724 41.8109 49.1824 41.8109 48.5C41.8109 47.8175 43.1133 46.8275 45.1553 46.8275ZM61.8796 55.1894C65.6308 55.1894 68.569 52.987 68.569 50.1726C68.569 47.3574 65.631 45.155 61.8796 45.155C58.1284 45.155 55.1897 47.3574 55.1897 50.1724C55.1897 52.987 58.1283 55.1894 61.8796 55.1894ZM61.8796 48.5C63.9214 48.5 65.2246 49.4902 65.2246 50.1724C65.2246 50.8547 63.9214 51.8449 61.8796 51.8449C59.8379 51.8449 58.5346 50.8549 58.5346 50.1724C58.5346 49.49 59.8379 48.5 61.8794 48.5H61.8796ZM83.6209 56.8618C83.6209 54.0473 80.6821 51.8451 76.9315 51.8451C73.1803 51.8451 70.2415 54.0473 70.2415 56.8618C70.2415 59.6771 73.1803 61.8793 76.9315 61.8793C80.6821 61.8793 83.6209 59.6769 83.6209 56.8618ZM76.9315 58.5343C74.8897 58.5343 73.5865 57.5448 73.5865 56.8618C73.5865 56.1794 74.889 55.1894 76.9315 55.1894C78.9734 55.1894 80.2767 56.1794 80.2767 56.8618C80.2767 57.5448 78.9732 58.5343 76.9315 58.5343ZM66.8971 61.8793C63.1459 61.8793 60.2071 64.0817 60.2071 66.8968C60.2071 69.7113 63.1459 71.9135 66.8971 71.9135C70.6477 71.9135 73.5867 69.7113 73.5867 66.8968C73.5867 64.0817 70.6477 61.8793 66.8971 61.8793ZM66.8971 68.5687C64.8548 68.5687 63.5521 67.5792 63.5521 66.8968C63.5521 66.2138 64.8546 65.2243 66.8971 65.2243C68.939 65.2243 70.2415 66.2138 70.2415 66.8968C70.2415 67.5792 68.939 68.5687 66.8971 68.5687ZM48.5003 65.2243C44.7491 65.2243 41.8109 67.4267 41.8109 70.241C41.8109 73.0563 44.7489 75.2587 48.5003 75.2587C52.2516 75.2587 55.1897 73.0563 55.1897 70.2412C55.1897 67.4267 52.2516 65.2245 48.5003 65.2245V65.2243ZM48.5003 71.9137C46.4585 71.9137 45.1553 70.9234 45.1553 70.2412C45.1553 69.5588 46.4578 68.5687 48.5003 68.5687C50.542 68.5687 51.8452 69.5588 51.8452 70.2412C51.8452 70.9234 50.542 71.9137 48.5003 71.9137ZM40.4826 60.6553C39.8068 60.5094 39.1416 60.7989 38.7686 61.3324C38.2869 61.3426 37.8172 61.485 37.4108 61.7439C37.0044 62.0028 36.677 62.3683 36.4641 62.8006C35.2933 62.8472 34.2564 63.6822 34.0041 64.8795C33.9526 65.1233 33.9562 65.3755 34.0147 65.6177C34.0732 65.8599 34.1852 66.086 34.3423 66.2794C34.4995 66.4727 34.6978 66.6285 34.923 66.7354C35.1481 66.8422 35.3942 66.8974 35.6434 66.8968C35.912 66.8965 36.1765 66.8314 36.4146 66.7071C36.6526 66.5827 36.8572 66.4028 37.0109 66.1826C37.4926 66.1723 37.9624 66.03 38.3688 65.7711C38.7752 65.5122 39.1027 65.1466 39.3156 64.7143C40.4864 64.6679 41.5231 63.8331 41.7754 62.6356C41.9649 61.7306 41.3853 60.844 40.4826 60.6553ZM56.6445 61.1251C56.1583 60.2756 55.2281 59.8241 54.2519 59.8073C54.0083 59.4017 53.6592 59.0699 53.2417 58.8473C52.6231 58.515 51.9117 58.4411 51.243 58.6484C50.3586 58.9161 49.8582 59.8495 50.1277 60.7324C50.222 61.0462 50.4066 61.3253 50.6585 61.5349C50.9103 61.7445 51.2183 61.8753 51.544 61.9111C51.7875 62.3385 52.147 62.6882 52.5809 62.9198C53.0041 63.1471 53.4757 63.2358 53.9374 63.2305C54.1802 63.6358 54.5286 63.9676 54.9453 64.1905C55.325 64.3957 55.7496 64.5037 56.1812 64.505C56.4374 64.505 56.6933 64.468 56.9442 64.3911C57.8285 64.124 58.3289 63.1907 58.0595 62.3079C57.9661 61.9934 57.7821 61.7135 57.5304 61.5031C57.2787 61.2928 56.9705 61.1612 56.6445 61.1251ZM45.3394 56.1076C44.8525 55.2581 43.9378 54.7911 42.9462 54.7896C42.7027 54.3841 42.3535 54.0523 41.9361 53.8298C41.3173 53.4991 40.6061 53.4257 39.9379 53.6315C39.0528 53.8986 38.5532 54.8319 38.822 55.7147C39.021 56.377 39.5931 56.8219 40.2392 56.8937C40.4826 57.321 40.842 57.6707 41.2758 57.9023C41.6983 58.1297 42.172 58.2183 42.6316 58.213C42.8748 58.6184 43.2234 58.9502 43.6404 59.173C44.02 59.3783 44.4446 59.4863 44.8762 59.4875C45.1316 59.4875 45.3877 59.4513 45.6386 59.3742C46.5235 59.1063 47.0231 58.173 46.7544 57.2902C46.6613 56.9756 46.4773 56.6956 46.2255 56.4852C45.9738 56.2748 45.6655 56.1435 45.3394 56.1076Z" fill="#F2F2F2"/>
<path d="M96.7423 74.5779C96.7639 74.3122 96.7609 74.0443 96.6973 73.7765L83.7294 40.3749L91.9344 7.08896C91.9477 7.03269 91.9291 6.97567 91.9372 6.91883C91.9477 6.84172 91.9825 6.77143 91.9825 6.6894V1.67268C91.9828 1.45295 91.9397 1.23533 91.8557 1.03228C91.7717 0.829229 91.6485 0.644735 91.4932 0.489362C91.3378 0.33399 91.1533 0.21079 90.9502 0.126819C90.7472 0.0428468 90.5296 -0.000248221 90.3098 1.07544e-06H6.68959C6.46993 -7.35953e-05 6.2524 0.0431343 6.04944 0.127156C5.84648 0.211178 5.66206 0.334367 5.50673 0.489685C5.35139 0.645002 5.22818 0.829405 5.14414 1.03236C5.06009 1.23531 5.01686 1.45283 5.01691 1.67249V6.68997C5.01691 7.13359 5.19314 7.55905 5.50682 7.87273C5.82051 8.18642 6.24597 8.36265 6.68959 8.36265H6.93891L13.9581 39.2448C13.6668 39.5394 13.4226 39.8842 13.2989 40.3024L0.371518 73.5559L0.302746 73.7787C0.22867 74.091 0.22867 74.4039 0.270918 74.7118C0.114051 75.0041 0 75.3254 0 75.6814V85.9807C0 87.4451 1.19223 88.6381 2.65746 88.6381H94.3425C95.8078 88.6381 97 87.4451 97 85.9807V75.4724C97 75.1432 96.8928 74.8486 96.7423 74.5777V74.5779ZM57.5797 73.5863H57.5278C56.3267 73.5863 55.2966 74.424 55.0191 75.6267C54.9689 75.8442 54.8851 76.0461 54.8082 76.2534C54.7646 76.3727 54.7364 76.4978 54.6847 76.6131C54.6106 76.7759 54.5108 76.9231 54.4219 77.0771C54.3397 77.2192 54.2702 77.3694 54.1747 77.5049C54.1059 77.6017 54.0193 77.6854 53.9455 77.7771C53.8034 77.9533 53.6677 78.1352 53.5057 78.2959C53.465 78.3345 53.4184 78.3663 53.3769 78.4048C52.4016 79.3195 51.1057 79.9632 49.6574 80.1876C49.2807 80.2459 48.8929 80.2764 48.5 80.2764C48.1071 80.2764 47.7185 80.2461 47.3424 80.1874C45.8772 79.9619 44.5645 79.306 43.5875 78.3743C43.5594 78.3463 43.5238 78.3249 43.4958 78.2959C43.3255 78.1257 43.1798 77.9363 43.0311 77.7491C42.9644 77.6654 42.8859 77.59 42.8253 77.5034C42.7179 77.3509 42.6396 77.1859 42.5493 77.0252C42.4724 76.8877 42.3807 76.7573 42.3153 76.6131C42.2503 76.4711 42.2132 76.3157 42.1615 76.1683C42.0978 75.9878 42.0209 75.8123 41.9786 75.6251C41.7026 74.424 40.6726 73.5863 39.4714 73.5863H18.0166C13.0116 70.3485 10.0344 64.3076 10.0344 60.2069C10.0344 50.2341 27.6497 41.8106 48.5 41.8106C69.3493 41.8106 86.9656 50.2339 86.9656 60.2069C86.9656 64.3076 83.9884 70.3485 78.9834 73.5863H57.5797ZM16.3011 41.8106H25.9358C21.1981 43.3626 17.1322 45.3977 13.9744 47.7954L16.3011 41.8106ZM83.0248 47.7939C79.8678 45.3962 75.8019 43.3626 71.0642 41.8106H80.6989L83.0248 47.7939ZM89.5691 64.6287L93.0512 73.5863H84.1844C86.8131 70.9102 88.6381 67.6696 89.5691 64.6287ZM8.36189 3.34499H88.6374V5.01748H55.0723C54.8139 5.01744 54.5589 5.07722 54.3275 5.19212C54.096 5.30703 53.8942 5.47394 53.738 5.67981C53.582 5.88599 53.4758 6.12552 53.4279 6.37962C53.3801 6.63371 53.3917 6.89544 53.462 7.14428C53.4977 7.26828 53.5162 7.39661 53.5169 7.52565C53.5169 8.71352 51.7991 10.0344 49.3362 10.0344C46.8726 10.0344 45.155 8.71333 45.155 7.52565C45.155 7.39909 45.1734 7.27557 45.2098 7.14447C45.28 6.89567 45.2917 6.634 45.2439 6.37994C45.1962 6.12587 45.0903 5.88631 44.9345 5.68C44.7784 5.47383 44.5765 5.3067 44.3449 5.19174C44.1132 5.07678 43.858 5.01713 43.5994 5.01748H8.36189V3.34499ZM41.8824 8.3617C42.3894 11.2355 45.4813 13.3794 49.3362 13.3794C53.1912 13.3794 56.2816 11.2355 56.7901 8.36189H88.1764L80.7559 38.4656H17.2128L10.3688 8.36189L41.8824 8.3617ZM7.43092 64.6274C8.36189 67.6691 10.1869 70.9104 12.8176 73.5866H3.94896L7.43092 64.6274ZM93.6548 85.2933H3.34517V76.9312H38.8676C40.0532 80.895 43.9378 83.6206 48.5025 83.6206C53.0664 83.6206 56.9507 80.8944 58.1371 76.9312H93.6558V85.2931L93.6548 85.2933Z" fill="#F2F2F2"/>
</svg>
