<svg width="47" height="49" viewBox="0 0 47 49" fill="none" xmlns="http://www.w3.org/2000/svg">
<path fill-rule="evenodd" clip-rule="evenodd" d="M22.2024 0.717773C17.2987 0.717773 13.2866 4.43689 13.2866 8.9825V11.6074H33.7132V8.9825C33.7132 4.43728 29.7012 0.717773 24.7975 0.717773H22.2024ZM33.7132 11.6074H13.2867V15.3926L16.3839 18.2637H30.6161L33.7132 15.3926V11.6074Z" fill="#73071B"/>
<path fill-rule="evenodd" clip-rule="evenodd" d="M30.6161 18.2637H16.3839L13.2867 15.3926V23.305L19.7002 29.25H27.2998L33.7132 23.305V15.3926L30.6161 18.2637Z" fill="#512D00"/>
<path fill-rule="evenodd" clip-rule="evenodd" d="M15.6096 17.5459L13.2867 15.3926V23.305L19.7002 29.25H22.0231L15.6096 23.305V17.5459Z" fill="#6B3B00"/>
<path fill-rule="evenodd" clip-rule="evenodd" d="M11.3074 13.0427C10.4558 13.0427 9.75878 13.6888 9.75878 14.4783V18.1479C9.75878 18.9374 10.5142 19.2958 11.3074 19.5835L13.2867 20.3012V13.0427H11.3074ZM33.7133 20.3012L35.6926 19.5835C36.4858 19.2959 37.2412 18.9374 37.2412 18.1479V14.4783C37.2412 13.6888 36.5443 13.0427 35.6926 13.0427H33.7133V20.3012Z" fill="#512D00"/>
<path fill-rule="evenodd" clip-rule="evenodd" d="M11.7381 19.7396L13.2867 20.3012V13.0427H11.7381V19.7396ZM35.2619 19.7396L33.7132 20.3012V13.0427H35.2619V19.7396Z" fill="#6B3B00"/>
<path fill-rule="evenodd" clip-rule="evenodd" d="M27.2998 29.25H19.7002L16.8036 26.5649V31.4033L23.5 33.5565L30.1964 31.4033V26.5649L27.2998 29.25Z" fill="#512D00"/>
<path fill-rule="evenodd" clip-rule="evenodd" d="M19.1265 28.679L16.8036 26.5649V31.4033L19.1265 32.1503V28.679Z" fill="#6B3B00"/>
<path fill-rule="evenodd" clip-rule="evenodd" d="M30.1964 31.4033L23.5 33.5565L16.8036 31.4033L10.6124 31.9682L18.7454 38.7341L23.5 33.5565L28.2546 38.7341L36.3876 31.9682L30.1964 31.4033Z" fill="#F2B035"/>
<path fill-rule="evenodd" clip-rule="evenodd" d="M8.9373 32.1207C4.46943 32.5284 0.774316 35.5259 0.774316 39.6877V48.2818H46.2256V39.6877C46.2256 35.5259 42.5305 32.5285 38.0626 32.1207L36.3875 31.9679L28.2546 38.7338L23.5 33.5562L18.7454 38.7337L10.6125 31.9678L8.9373 32.1207Z" fill="#73071B"/>
<path fill-rule="evenodd" clip-rule="evenodd" d="M22.2024 0.717773C17.2987 0.717773 13.2866 4.43689 13.2866 8.9825V11.6074H15.6096V8.9825C15.6096 4.43689 19.6216 0.717773 24.5253 0.717773H22.2024ZM15.6096 11.6074H13.2867V15.3926L16.3839 18.2637H18.7068L15.6096 15.3926V11.6074Z" fill="#9B001C"/>
<path d="M43.9028 42.5592H42.3541V41.1236H43.9028V42.5592ZM43.9028 39.688H42.3541C42.3541 37.4945 40.429 35.7099 38.0627 35.7099V34.2744C41.2829 34.2744 43.9028 36.7029 43.9028 39.688ZM29.8364 8.76909C29.715 6.30846 27.4546 4.30664 24.7975 4.30664V2.87109C26.4967 2.87109 28.1139 3.4767 29.3512 4.57643C30.5844 5.67242 31.3062 7.13811 31.3835 8.70353L29.8364 8.76909ZM23.249 4.30664H21.7004V2.87109H23.249V4.30664ZM29.0675 13.7607H30.6161V15.1962H29.0675V13.7607Z" fill="#C6C6C6"/>
<path fill-rule="evenodd" clip-rule="evenodd" d="M8.9373 32.1209C4.46943 32.5285 0.774316 35.5261 0.774316 39.6878V48.282H3.09725V39.6878C3.09725 35.6541 6.56853 32.7141 10.8503 32.1658L10.6124 31.968L8.9373 32.1209ZM38.4727 32.1658C38.3368 32.1484 38.2001 32.1334 38.0627 32.1209L36.3876 31.968L29.5715 37.6384L30.5775 38.7339L38.4727 32.1658ZM24.6615 34.8211L23.5 33.5563L19.7514 37.6383L21.0683 38.7338L24.6615 34.8211Z" fill="#9B001C"/>
<path fill-rule="evenodd" clip-rule="evenodd" d="M12.7164 31.7761L10.6125 31.9681L18.7454 38.734L19.7522 37.6377L12.7164 31.7761ZM23.5 33.5565L28.2546 38.734L29.5714 37.6385L25.2933 32.9799L23.5 33.5565Z" fill="#F2C438"/>
<path d="M38.1386 31.4068L30.9707 30.7528V26.8622L34.4876 23.6023V20.7913L35.9746 20.252C36.6371 20.0118 38.0155 19.5121 38.0155 18.1481V14.4784C38.0155 13.2912 36.9734 12.3251 35.6926 12.3251H34.4876V8.9825C34.4876 4.02948 30.1407 0 24.7975 0H22.2024C19.9335 0 17.723 0.749834 15.9778 2.1115L16.975 3.20979C18.4416 2.06566 20.298 1.43555 22.2025 1.43555H24.7976C29.2868 1.43555 32.939 4.82104 32.939 8.9825V10.8896H14.0611V8.9825C14.0611 7.21688 14.7407 5.49604 15.9749 4.13705L14.7902 3.21256C13.3213 4.82995 12.5124 6.87914 12.5124 8.9826V12.3252H11.3074C10.0266 12.3252 8.98447 13.2912 8.98447 14.4785V18.1482C8.98447 19.5121 10.363 20.012 11.0252 20.2521L12.5124 20.7914V23.6024L16.0292 26.8623V30.7529L8.86141 31.4069C6.79452 31.5955 4.88641 32.2902 3.34306 33.4162L4.30083 34.5442C5.61137 33.5881 7.24093 32.9972 9.01317 32.8356L10.349 32.7136L18.8198 39.7605L23.5 34.6639L28.1802 39.7603L32.2621 36.3647L31.2277 35.2964L28.329 37.7078L24.8237 33.8907L30.2897 32.1331L34.5616 32.5229L32.3802 34.3376L33.4146 35.4059L36.651 32.7135L37.9868 32.8355C42.3121 33.2301 45.4514 36.112 45.4514 39.6881V47.5645H36.1597V41.6338H34.611V47.5645H24.2743V49H47V39.688C47 35.3581 43.2732 31.8753 38.1386 31.4068ZM35.6926 13.7607C36.1196 13.7607 36.4669 14.0826 36.4669 14.4784V18.1481C36.4669 18.3914 36.2941 18.5948 35.4105 18.9151L34.4877 19.2498V13.7607H35.6926ZM11.5894 18.9151C10.7059 18.5948 10.5331 18.3914 10.5331 18.1481V14.4784C10.5331 14.0826 10.8804 13.7607 11.3074 13.7607H12.5124V19.2498L11.5894 18.9151ZM14.0611 17.1255L16.0632 18.9815H25.9703V17.5459H16.7047L14.0611 15.0953V12.3252H32.939V15.0953L30.2954 17.5459H27.519V18.9815H30.9369L32.939 17.1255V23.0077L26.9791 28.5323H20.0211L14.0612 23.0077L14.0611 17.1255ZM19.3795 29.9678H27.6205L29.4221 28.2978V30.8926L23.5 32.7969L17.5779 30.8926V28.2978L19.3795 29.9678ZM18.671 37.7078L12.4384 32.5229L16.7103 32.1331L22.1763 33.8907L18.671 37.7078Z" fill="black"/>
<path d="M12.3891 41.6338H10.8404V47.5644H1.54872V39.688C1.54872 38.1025 2.14721 36.6331 3.27946 35.4389L2.11624 34.4912C0.731775 35.9514 0 37.7485 0 39.688V49H22.7257V47.5644H12.3891V41.6338ZM22.7257 41.8223H24.2743V43.2578H22.7257V41.8223ZM22.7257 38.9512H24.2743V40.3867H22.7257V38.9512ZM22.7257 44.6934H24.2743V46.1289H22.7257V44.6934Z" fill="black"/>
</svg>
